<?xml version="1.0" encoding="utf-8"?>
<!-- Generator: Adobe Illustrator 19.0.0, SVG Export Plug-In . SVG Version: 6.00 Build 0)  -->
<svg version="1.1" id="Layer_1" xmlns="http://www.w3.org/2000/svg" xmlns:xlink="http://www.w3.org/1999/xlink" x="0px" y="0px"
	 viewBox="0 0 510.2 177.2" style="enable-background:new 0 0 510.2 177.2;" xml:space="preserve">
<style type="text/css">
	.st0{fill-rule:evenodd;clip-rule:evenodd;fill:#FFFFFF;}
	.st1{fill-rule:evenodd;clip-rule:evenodd;fill:#2F2483;}
	.st2{fill-rule:evenodd;clip-rule:evenodd;fill:#FFCC00;}
	.st3{fill-rule:evenodd;clip-rule:evenodd;fill:#E3000F;}
	.st4{fill-rule:evenodd;clip-rule:evenodd;fill:#E4110F;}
</style>
<g>
	<path class="st0" d="M255.1,24.2c30.4,0,55.1,24.7,55.1,55.1c0,30.4-24.7,55.1-55.1,55.1c-30.4,0-55.1-24.7-55.1-55.1
		C200,48.9,224.7,24.2,255.1,24.2z"/>
	<path class="st1" d="M255.1,23.3L255.1,23.3L255.1,23.3c15.5,0,29.5,6.3,39.6,16.4v0c10.1,10.1,16.4,24.1,16.4,39.6h0v0v0h0
		c0,15.5-6.3,29.5-16.4,39.6c-10.1,10.1-24.1,16.4-39.6,16.4v0h0h0v0c-15.5,0-29.5-6.3-39.6-16.4l0,0
		c-10.1-10.1-16.4-24.1-16.4-39.6h0v0v0h0c0-15.5,6.3-29.5,16.4-39.6C225.6,29.6,239.6,23.3,255.1,23.3L255.1,23.3L255.1,23.3
		L255.1,23.3z M255.1,25.2L255.1,25.2L255.1,25.2L255.1,25.2L255.1,25.2c-15,0-28.5,6.1-38.3,15.9c-9.8,9.8-15.9,23.3-15.9,38.3h0v0
		v0h0c0,14.9,6.1,28.5,15.9,38.2v0c9.8,9.8,23.3,15.9,38.3,15.9v0h0h0v0c14.9,0,28.5-6.1,38.2-15.9c9.8-9.8,15.9-23.3,15.9-38.3h0v0
		v0h0c0-14.9-6.1-28.5-15.9-38.2l0,0C283.6,31.2,270.1,25.2,255.1,25.2z"/>
	<path class="st1" d="M214.2,56.3l-1.4,2.7l0.9,0.5l1.3-2.5c0.2-0.4,0.4-0.6,0.6-0.7c0.2-0.1,0.6,0,1,0.2l0.6,0.3
		c0.4,0.2,0.6,0.4,0.7,0.7c0.1,0.2,0,0.5-0.2,0.9l-1.3,2.5c-0.2,0.4-0.4,0.6-0.6,0.7c-0.2,0.1-0.6,0-1-0.2l-0.1-0.1l0.2-0.9l0.5,0.3
		l1.5-2.9l-1-0.5l-1.3,2.5c-0.2,0.4-0.4,0.6-0.6,0.7c-0.2,0.1-0.5,0-1-0.2l-0.5-0.3c-0.4-0.2-0.6-0.4-0.7-0.7
		c-0.1-0.2,0-0.5,0.2-0.9l1.2-2.3c0.2-0.4,0.4-0.6,0.6-0.7c0.2-0.1,0.5,0,0.9,0.2l0.1,0l-0.2,0.9L214.2,56.3z"/>
	<polygon class="st1" points="219.6,55.4 215.5,52.4 218.3,48.6 219,49.1 216.9,52.1 217.8,52.7 219,51 219.7,51.5 218.4,53.2 
		219.4,54 221.6,51 222.4,51.6 	"/>
	<polygon class="st1" points="224.8,49 219.4,47.4 220.3,46.5 224.1,47.7 222.8,43.9 223.6,43.2 225.3,48.5 	"/>
	<path class="st1" d="M227.4,46.5l-0.9-5.6l0.8-0.6l5.1,2.5l-1,0.7l-1.1-0.6l-2.3,1.7l0.2,1.2L227.4,46.5L227.4,46.5z M227.9,43.6
		L227.9,43.6l1.6-1.2l-2-1L227.9,43.6z"/>
	<polygon class="st1" points="240,39 238.5,34.2 239.6,33.9 240.2,35.9 242,33.1 243.5,32.7 241.3,35.8 245.4,37.3 243.7,37.8 
		240.4,36.6 241.1,38.7 	"/>
	<path class="st1" d="M246.9,37l-0.7-4.9L247,32l3.6,2.5c0.3,0.2,0.5,0.3,0.6,0.5l-0.1-0.6c0-0.1,0-0.2,0-0.3l-0.3-2.6l1-0.1
		l0.7,4.9l-0.7,0.1l-3.8-2.6c-0.2-0.1-0.3-0.2-0.4-0.4c0.1,0.3,0.1,0.6,0.1,0.8l0.4,2.7L246.9,37z"/>
	<path class="st1" d="M254.8,32.4c0-0.5,0.1-0.8,0.3-0.9c0.2-0.1,0.5-0.2,0.9-0.2l3.4,0.2c0.4,0,0.7,0.1,0.9,0.3
		c0.2,0.2,0.2,0.5,0.2,1l-0.1,2.6c0,0.5-0.1,0.8-0.3,0.9c-0.2,0.1-0.5,0.2-0.9,0.2l-3.4-0.2c-0.4,0-0.7-0.1-0.9-0.3
		c-0.2-0.2-0.2-0.5-0.2-1L254.8,32.4L254.8,32.4z M255.7,35.3L255.7,35.3l3.6,0.2l0.2-3.2l-3.6-0.2L255.7,35.3z"/>
	<polygon class="st1" points="263.5,37 262.9,31.8 264,32 264.4,35.5 266.4,32.6 267.1,32.8 267.5,36.3 269.4,33.3 270.3,33.6 
		267.4,38 266.7,37.8 266.3,34.2 264.2,37.2 	"/>
	<polygon class="st1" points="270.6,39.1 272.6,34.5 273.5,34.9 271.9,38.6 275.1,40 274.8,40.9 	"/>
	<polygon class="st1" points="276.1,41.6 278.8,37.4 282.8,40 282.4,40.7 279.3,38.7 278.7,39.7 280.5,40.8 280,41.5 278.2,40.4 
		277.6,41.4 280.7,43.4 280.2,44.2 	"/>
	<path class="st1" d="M281.8,45.4l3.3-3.7l2.2,2c0.6,0.5,0.9,1.1,1,1.7c0.1,0.7-0.1,1.3-0.7,1.9c-0.6,0.7-1.4,1-2.2,0.9
		c-0.5-0.1-1-0.4-1.7-1L281.8,45.4L281.8,45.4z M283.2,45.4L283.2,45.4l1,0.9c0.5,0.4,0.9,0.7,1.3,0.8c0.5,0.1,0.9-0.1,1.3-0.6
		c0.7-0.8,0.7-1.5-0.1-2.2l-1.4-1.3L283.2,45.4z"/>
	<path class="st1" d="M293.3,51.5l-2.1-2.7l-2.5,1.9l2.1,2.7l0.9-0.7l-1.1-1.4l0.7-0.5l1.7,2.2l-1.4,1.1c-0.4,0.3-0.7,0.4-0.9,0.4
		c-0.2,0-0.5-0.2-0.7-0.6l-2-2.5c-0.3-0.3-0.4-0.6-0.4-0.8c0-0.2,0.2-0.5,0.6-0.8l2.1-1.6c0.4-0.3,0.7-0.4,0.9-0.4
		c0.2,0,0.5,0.2,0.7,0.6l2,2.5c0.3,0.3,0.4,0.6,0.4,0.8c0,0.2-0.2,0.5-0.5,0.8l-0.1,0.1l-0.8-0.7L293.3,51.5z"/>
	<polygon class="st1" points="291.9,56.8 296.3,54.5 298.6,58.6 297.8,59 296.1,55.8 295.1,56.3 296.1,58.2 295.3,58.6 294.3,56.7 
		293.2,57.3 295,60.6 294.2,61 	"/>
	<polygon class="st1" points="207.3,84.5 212.3,83.7 213,88.4 212.2,88.6 211.6,84.9 210.5,85.1 210.8,87.2 210,87.3 209.7,85.2 
		208.4,85.4 209,89.1 208.1,89.2 	"/>
	<path class="st1" d="M213.7,93.7l-0.9-2.8l-3,0.9l0.9,2.8l1-0.3l0.1,1.1l-0.6,0.2c-0.4,0.1-0.8,0.2-1,0c-0.2-0.1-0.4-0.4-0.5-0.8
		l-0.8-2.7c-0.1-0.4-0.1-0.7,0-0.9c0.1-0.2,0.4-0.4,0.8-0.5l2.5-0.8c0.4-0.1,0.8-0.1,1,0c0.2,0.1,0.4,0.4,0.5,0.8l0.8,2.7
		c0.1,0.4,0.1,0.7,0,0.9c-0.1,0.2-0.4,0.4-0.8,0.5l-0.5,0.1l-0.5-1L213.7,93.7z"/>
	<path class="st1" d="M214.3,96.3c0.4-0.2,0.7-0.3,1-0.2c0.2,0.1,0.4,0.3,0.6,0.7l1.5,3.1c0.2,0.4,0.3,0.7,0.2,0.9
		c-0.1,0.2-0.3,0.5-0.7,0.7l-2.4,1.2c-0.4,0.2-0.7,0.3-1,0.2c-0.2-0.1-0.4-0.3-0.6-0.7l-1.5-3.1c-0.2-0.4-0.3-0.7-0.2-0.9
		c0.1-0.2,0.3-0.5,0.7-0.7L214.3,96.3L214.3,96.3z M212.2,98.6L212.2,98.6l1.6,3.2l2.8-1.4l-1.6-3.2L212.2,98.6z"/>
	<path class="st1" d="M214.7,105.2l4-2.9l0.4,0.6l-0.4,4.4c0,0.3-0.1,0.6-0.1,0.8l0.5-0.4c0.1-0.1,0.1-0.1,0.2-0.2l2.1-1.5l0.6,0.8
		l-4,2.9l-0.4-0.6l0.5-4.6c0-0.2,0.1-0.4,0.1-0.6c-0.2,0.2-0.4,0.4-0.6,0.5l-2.2,1.6L214.7,105.2z"/>
	<path class="st1" d="M222.1,108.7c0.3-0.3,0.6-0.5,0.8-0.5c0.2,0,0.5,0.2,0.8,0.5l2.5,2.4c0.3,0.3,0.5,0.6,0.5,0.8
		c0,0.2-0.2,0.5-0.5,0.9l-1.8,1.9c-0.3,0.3-0.6,0.5-0.8,0.5c-0.2,0-0.5-0.2-0.8-0.5l-2.5-2.4c-0.3-0.3-0.5-0.6-0.5-0.8
		c0-0.2,0.2-0.5,0.5-0.9L222.1,108.7L222.1,108.7z M220.8,111.5L220.8,111.5l2.6,2.5l2.2-2.2l-2.6-2.5L220.8,111.5z"/>
	<path class="st1" d="M225.3,116.9l2.9-4.1l0.7,0.5l0.1,3.7l3.5-1.2l0.7,0.5l-2.9,4.1l-0.8-0.6l1.8-2.5c0.1-0.1,0.2-0.2,0.3-0.4
		c-0.1,0.1-0.3,0.2-0.5,0.3l-2.9,1l-0.2-0.1l0-3.1c0-0.2,0-0.4,0.1-0.6c-0.1,0.2-0.2,0.3-0.3,0.4l-1.8,2.5L225.3,116.9z"/>
	
		<rect x="231.5" y="119" transform="matrix(-0.4664 0.8846 -0.8846 -0.4664 448.8589 -31.7171)" class="st1" width="5" height="1.1"/>
	<path class="st1" d="M240.6,120.7l-2.7-1.1l-1.2,2.9l2.7,1.1l0.4-1l0.9,0.6l-0.2,0.6c-0.2,0.4-0.4,0.7-0.6,0.8
		c-0.2,0.1-0.5,0.1-0.9-0.1l-2.6-1c-0.4-0.2-0.7-0.3-0.8-0.5c-0.1-0.2-0.1-0.5,0.1-1l1-2.5c0.2-0.4,0.4-0.7,0.6-0.8
		c0.2-0.1,0.5-0.1,0.9,0.1l2.6,1c0.4,0.2,0.7,0.3,0.8,0.6c0.1,0.2,0.1,0.5-0.1,1l-0.2,0.4l-1.1-0.2L240.6,120.7z"/>
	<polygon class="st1" points="245.7,126.4 246.5,121.4 251.2,122.2 251.1,123 247.4,122.4 247.3,123.5 249.4,123.9 249.3,124.7 
		247.1,124.4 246.9,125.6 250.7,126.2 250.5,127.1 	"/>
	<path class="st1" d="M252.5,127.3l-0.1-5l0.9,0l2.3,3l2.1-3.1l0.9,0l0.1,5l-1,0l-0.1-3.1c0-0.1,0-0.3,0-0.5
		c-0.1,0.1-0.1,0.3-0.3,0.5l-1.7,2.5l-0.2,0l-1.8-2.5c-0.1-0.2-0.2-0.3-0.3-0.5c0,0.2,0,0.4,0,0.5l0.1,3.1L252.5,127.3z"/>
	<path class="st1" d="M260.9,127l-0.8-4.9l4-0.6c0.7-0.1,1.1,0.1,1.2,0.8l0.2,1.1c0.1,0.6-0.2,1-0.9,1.1l-2.9,0.5l0.3,1.9L260.9,127
		L260.9,127z M263.8,122.3L263.8,122.3l-2.4,0.4l0.2,1.3l2.4-0.4c0.3-0.1,0.5-0.2,0.4-0.5l-0.1-0.5
		C264.3,122.4,264.1,122.3,263.8,122.3z"/>
	<path class="st1" d="M266.3,122.2c-0.1-0.4-0.2-0.8,0-1c0.1-0.2,0.4-0.4,0.8-0.5l3.3-1.1c0.4-0.1,0.7-0.2,0.9-0.1
		c0.2,0.1,0.4,0.4,0.5,0.8l0.8,2.5c0.1,0.4,0.2,0.8,0,1c-0.1,0.2-0.4,0.4-0.8,0.5l-3.3,1.1c-0.4,0.1-0.7,0.2-0.9,0.1
		c-0.2-0.1-0.4-0.4-0.5-0.8L266.3,122.2L266.3,122.2z M268.2,124.6L268.2,124.6l3.4-1.1l-1-3l-3.4,1.1L268.2,124.6z"/>
	<polygon class="st1" points="276,122.6 272,119.1 273,118.6 275.7,121 275.2,117.4 275.9,117.1 278.5,119.4 278,115.9 278.9,115.5 
		279.6,120.7 278.9,121.1 276.2,118.6 276.6,122.3 	"/>
	<polygon class="st1" points="282.4,118.9 279.4,115 283.3,112.1 283.8,112.7 280.8,115 281.5,115.9 283.2,114.6 283.7,115.2 
		282,116.5 282.7,117.5 285.7,115.3 286.3,116 	"/>
	<path class="st1" d="M287.8,114.7l-3.6-3.5l2.8-2.9c0.5-0.5,1-0.5,1.4-0.1l0.8,0.8c0.5,0.5,0.4,0.9-0.1,1.4l-0.4,0.4l2.9-0.2
		l-1.1,1.1l-2.7,0l-0.7,0.7l1.3,1.3L287.8,114.7L287.8,114.7z M287.4,109.3L287.4,109.3l-1.7,1.7l1,1l1.7-1.7
		c0.2-0.2,0.3-0.4,0.1-0.6l-0.4-0.4C287.8,109,287.6,109,287.4,109.3z"/>
	<path class="st1" d="M292.8,109.4l-4.1-2.9l0.5-0.7l3.8-0.1l-1.2-3.5l0.5-0.7l4.1,2.9l-0.6,0.8l-2.5-1.8c-0.1-0.1-0.2-0.2-0.4-0.3
		c0.1,0.1,0.2,0.3,0.3,0.5l1,2.9l-0.1,0.2l-3.1,0c-0.2,0-0.4,0-0.6-0.1c0.2,0.1,0.3,0.2,0.4,0.3l2.5,1.8L292.8,109.4z"/>
	<polygon class="st1" points="297.5,102.4 293,100.2 295.1,95.9 295.9,96.2 294.3,99.6 295.3,100.1 296.2,98.1 297,98.5 296,100.4 
		297.1,101 298.8,97.6 299.6,98 	"/>
	<path class="st1" d="M300.4,96.2l-4.8-1.5l0.2-0.7l3.8-2.3c0.3-0.2,0.5-0.3,0.7-0.3l-0.6-0.1c-0.1,0-0.2-0.1-0.3-0.1l-2.5-0.8
		l0.3-0.9l4.8,1.5l-0.2,0.7l-4,2.4c-0.2,0.1-0.3,0.2-0.5,0.3c0.3,0.1,0.6,0.1,0.8,0.2l2.6,0.8L300.4,96.2z"/>
	<polygon class="st1" points="298.8,85.7 302.9,86.4 302.7,87.5 298.7,86.8 298.3,88.9 297.4,88.8 298.3,83.5 299.2,83.6 	"/>
	<path class="st1" d="M231,79.1c0-3,0.5-5.8,1.5-8.4l-13.5,0l0,16.8h13.5C231.5,84.9,231,82.1,231,79.1z"/>
	<path class="st2" d="M245.2,57l-9.5-9.6l-12,11.8l9.5,9.6C235.7,63.5,240,59.3,245.2,57z"/>
	<path class="st2" d="M255.3,54.8c3,0,5.8,0.5,8.4,1.5V42.8h-16.8v13.5C249.5,55.3,252.3,54.8,255.3,54.8z"/>
	<path class="st2" d="M277.4,69l9.6-9.5l-11.9-11.9l-9.6,9.5C270.7,59.5,275,63.7,277.4,69z"/>
	<path class="st2" d="M278.1,70.7c1,2.6,1.5,5.5,1.5,8.4c0,3-0.5,5.8-1.5,8.4l13.5,0l0-16.8H278.1z"/>
	<path class="st2" d="M265.3,101.2l9.5,9.6l12-11.8l-9.5-9.6C274.8,94.6,270.6,98.9,265.3,101.2z"/>
	<path class="st2" d="M233.2,89.2l-9.6,9.5l11.9,11.9l9.6-9.5C239.8,98.7,235.6,94.5,233.2,89.2z"/>
	<path class="st2" d="M255.3,103.4c-3,0-5.8-0.5-8.4-1.5v13.5h16.8v-13.5C261.1,102.9,258.2,103.4,255.3,103.4z"/>
	<path class="st3" d="M244.3,93.2c0,0.4-0.1,0.6-0.2,0.8c-0.1,0.2-0.3,0.3-0.5,0.3c-0.2,0-0.3,0-0.4-0.1c-0.1-0.1-0.2-0.2-0.3-0.4
		c0-0.2-0.1-0.5-0.1-1c0-0.1,0-0.3,0-0.5h-2.6c0,0.8,0,1.5,0.1,1.9c0.1,0.4,0.2,0.8,0.4,1.1c0.2,0.3,0.4,0.5,0.7,0.8
		c0.3,0.2,0.5,0.4,0.8,0.5c0.4,0.2,0.9,0.2,1.5,0.2c1.1,0,2-0.3,2.6-1c0.6-0.6,0.9-1.6,0.9-2.8v-6.6h-2.9V93.2z"/>
	<rect x="248.7" y="87.3" class="st3" width="2.7" height="8.9"/>
	<polygon class="st3" points="252.7,89.7 255.1,89.7 255.1,96.3 257.7,96.3 257.7,89.7 260.1,89.7 260.1,87.3 252.7,87.3 	"/>
	<path class="st3" d="M269.2,89.3c-0.4-0.7-0.9-1.2-1.6-1.6c-0.7-0.4-1.5-0.6-2.3-0.6c-0.4,0-0.9,0.1-1.3,0.2
		c-0.4,0.1-0.8,0.3-1.1,0.5c-0.3,0.2-0.7,0.5-1,0.9c-0.3,0.4-0.6,0.8-0.8,1.4c-0.2,0.5-0.3,1.2-0.3,1.8c0,1.4,0.4,2.6,1.2,3.4
		c0.8,0.9,1.9,1.3,3.2,1.3c1,0,1.8-0.2,2.4-0.7c0.7-0.4,1.2-1,1.5-1.7c0.3-0.7,0.5-1.5,0.5-2.4C269.8,90.8,269.6,90,269.2,89.3
		L269.2,89.3z M266.8,93.2L266.8,93.2c-0.2,0.4-0.4,0.7-0.6,0.8c-0.3,0.2-0.5,0.3-0.9,0.3c-0.5,0-0.9-0.2-1.1-0.5
		c-0.4-0.5-0.5-1.1-0.5-2c0-0.6,0.1-1,0.2-1.4c0.2-0.4,0.4-0.7,0.6-0.8c0.3-0.2,0.6-0.3,0.9-0.3c0.3,0,0.5,0.1,0.7,0.2
		c0.2,0.1,0.4,0.3,0.5,0.5c0.1,0.2,0.2,0.4,0.3,0.8c0.1,0.3,0.1,0.7,0.1,1.1C267,92.4,267,92.8,266.8,93.2z"/>
	<polygon class="st4" points="262,72.3 262,70.5 254.8,70.5 254.8,75.8 251.3,75.8 251.3,70.5 249.5,70.5 249.5,77.6 254.8,77.6 
		254.8,81.1 249.5,81.1 249.5,83 256.6,83 256.6,77.6 260.1,77.6 260.1,83 262,83 262,75.8 256.6,75.8 256.6,72.3 	"/>
	<circle class="st4" cx="255.6" cy="66.4" r="1.7"/>
	<circle class="st4" cx="255.6" cy="58.6" r="1.5"/>
	<circle class="st4" cx="260.2" cy="66.4" r="1.7"/>
	<circle class="st4" cx="251.1" cy="66.4" r="1.7"/>
	<path class="st4" d="M261.4,58.6c-0.3,0.3-2.3,2.5-5.4,2.5c-3.1,0-5-1.9-5.7-2.5c0,0-0.4-0.3-0.6-0.2c-0.2,0.1-0.3,0.9,0.6,2.2
		c0.8,1.3,2.7,3.3,5.7,3.3c2.9,0,5.3-2.6,5.9-4.1C262.3,58.3,261.7,58.3,261.4,58.6L261.4,58.6z M255.9,63.2L255.9,63.2
		c-3-0.1-4.7-2.5-4.8-2.9c0,0,4.4,3.4,9.5,0.1C260.5,60.4,258.9,63.2,255.9,63.2z"/>
	<polygon class="st4" points="235.3,38.2 234.7,39.8 233.1,39.3 233.6,37.7 	"/>
	<path class="st2" d="M199.2,16.3V5.1l1.6,1v11.1L199.2,16.3L199.2,16.3z M203.2,16.3V5.1l1.6,1v11.1L203.2,16.3L203.2,16.3z
		 M210.4,6.2h7.8v1.2h-1.4v8.9l-1.6-1v-2.1c-0.2,0.3-0.5,0.5-0.8,0.6c-0.3,0.1-0.6,0.2-0.9,0.2c-0.5,0-1-0.4-1.6-1.1
		c-0.6-0.7-0.9-1.4-0.9-2c0-0.5,0.2-0.9,0.6-1.3C212,9.2,212.4,9,213,9c0.4,0,0.8,0.1,1.2,0.4c0.4,0.3,0.7,0.6,1,1v-3h-4.8V6.2
		L210.4,6.2z M211.9,12.1c0.1,0.1,0.3,0.2,0.5,0.2c0.2,0.1,0.4,0.1,0.6,0.1c0.4,0,0.8-0.1,1.2-0.3c0.4-0.2,0.7-0.5,1-0.9
		c-0.2-0.3-0.5-0.5-0.7-0.6c-0.3-0.1-0.6-0.2-0.9-0.2c-0.5,0-0.9,0.2-1.3,0.5C212,11.3,211.8,11.7,211.9,12.1L211.9,12.1z
		 M214.8,2.6l1.2-1.2l1.2,1.2L216,3.8L214.8,2.6L214.8,2.6z M217.9,6.2v1.2h4.1v1.2h-1.2c-0.6,0-1.1,0.2-1.6,0.6
		c-0.4,0.4-0.6,1-0.6,1.6c0,1,0.4,1.9,1.2,2.8c0.8,0.8,1.7,1.3,2.7,1.3l0.6,0.7c0.1,0.1,0.1,0.1,0.2,0.2c0,0.1,0.1,0.2,0.1,0.3
		c0,0.1,0,0.2-0.1,0.4c-0.1,0.1-0.2,0.2-0.3,0.3l1.3,0.6c0.1-0.3,0.2-0.6,0.1-0.9c-0.1-0.3-0.2-0.6-0.4-0.9l-0.7-0.7
		c0.2-0.1,0.4-0.3,0.6-0.6c0.1-0.3,0.2-0.6,0.2-1c0-0.5-0.1-0.9-0.4-1.3c-0.3-0.4-0.6-0.5-1-0.5c-0.4,0-0.7,0.1-1,0.4
		c-0.3,0.3-0.4,0.6-0.4,1c0,0.2,0,0.4,0.1,0.5c0,0.1,0.1,0.2,0.2,0.3c-0.6,0-1-0.2-1.4-0.5c-0.4-0.3-0.6-0.7-0.6-1.1
		c0-0.6,0.2-1,0.6-1.4c0.4-0.4,0.9-0.6,1.4-0.6h2.2V7.4h1.4V6.2H217.9L217.9,6.2z M216.8,1.9l1.3,1.3c0.2-0.2,0.4-0.3,0.5-0.4
		c0.2-0.1,0.3-0.1,0.5-0.1c0.3,0,0.6,0.1,0.8,0.2c0.3,0.1,0.5,0.3,0.7,0.6l2,2.6l0.4-0.2l-2.2-3.2c-0.4-0.5-0.8-0.9-1.2-1.2
		c-0.4-0.3-0.7-0.4-1-0.4c-0.4,0-0.8,0.1-1.1,0.2C217.2,1.4,216.9,1.6,216.8,1.9L216.8,1.9z M232,7.9c0,0.2,0.1,0.4,0.3,0.6
		c0.2,0.2,0.4,0.4,0.7,0.5c0.3-0.3,0.6-0.5,0.7-0.8c0.2-0.3,0.3-0.5,0.3-0.8c0-0.2-0.1-0.3-0.3-0.4c-0.2-0.1-0.4-0.2-0.7-0.2
		c-0.3,0-0.5,0.1-0.7,0.3C232.1,7.3,232,7.6,232,7.9L232,7.9z M229.6,11.9c1.3-0.9,2.3-1.8,2.9-2.5c-0.6-0.2-1-0.5-1.4-1
		c-0.3-0.4-0.5-0.9-0.5-1.4c0-0.4,0.2-0.8,0.5-1.1c0.3-0.3,0.7-0.4,1.1-0.4c0.5,0,1.1,0.3,1.8,1c0.7,0.7,1,1.3,1,1.8
		c0,0.2-0.1,0.5-0.2,0.7c-0.1,0.2-0.3,0.5-0.5,0.7l1.7,0.8l0.9-0.6V7.4h-1l-0.8-1.2h4.9v1.2h-1.4v8.9l-1.6-1v-3.6l-4,3.4l-1.4-0.8
		l4.1-3.2l-1.7-0.8c-1.8,1.5-2.7,2.3-2.8,2.3L229.6,11.9L229.6,11.9z M236.6,3.3c0,0.5,0.1,1,0.3,1.5c0.2,0.5,0.5,0.9,0.9,1.2h0.6
		c-0.3-0.3-0.5-0.6-0.6-0.9c-0.1-0.3-0.2-0.7-0.2-1c0-0.4,0.1-0.7,0.4-0.9c0.2-0.3,0.5-0.4,0.9-0.4c0.6,0,1.2,0.3,1.7,0.9
		c0.5,0.6,0.9,1.4,1,2.4h-1.8v1.2h1.3v7.9l1.6,1V7.4h1.4V6.2h-2c-0.2-1.4-0.7-2.6-1.4-3.5c-0.7-0.9-1.4-1.4-2.2-1.4
		c-0.5,0-1,0.2-1.4,0.6C236.8,2.3,236.6,2.8,236.6,3.3L236.6,3.3z M248.2,6.2h10.7v1.2h-4.4v3.2l0.8-0.4c0-0.3,0.1-0.6,0.3-0.9
		c0.2-0.2,0.4-0.4,0.6-0.4c0.4,0,0.7,0.1,1,0.4c0.3,0.2,0.4,0.5,0.4,0.9c0,0.2-0.1,0.4-0.3,0.7c-0.2,0.2-0.4,0.4-0.7,0.5
		c0.5,0.4,0.9,0.9,1.1,1.3c0.3,0.5,0.4,1,0.4,1.5c0,0.4-0.1,0.8-0.4,1.2c-0.3,0.4-0.6,0.6-1.1,0.7l-1.1-1.6h0.9
		c0.3,0,0.5-0.1,0.6-0.2c0.2-0.1,0.3-0.3,0.3-0.5c0-0.3-0.1-0.7-0.4-1.1c-0.3-0.4-0.6-0.8-1.1-1.2l-1.4,0.5v4.2l-1.6-1v-2.5
		l-2.4,1.1l-1.2-0.8l3.6-1.7c-0.3-0.4-0.6-0.6-1-0.8c-0.3-0.2-0.7-0.3-1-0.3c-0.3,0-0.5,0-0.8,0.1c-0.3,0.1-0.5,0.2-0.7,0.3
		l-0.8-1.4c0.2-0.1,0.5-0.2,0.8-0.3c0.3-0.1,0.7-0.1,1.1-0.1c0.5,0,0.9,0.2,1.3,0.6c0.4,0.4,0.8,0.9,1,1.6V7.4h-4.6V6.2L248.2,6.2z
		 M255.8,16.3L255.8,16.3L255.8,16.3L255.8,16.3L255.8,16.3L255.8,16.3z M258.5,6.2v1.2h0.7v2.8c0,0.6,0.4,1.2,1.1,2
		c0.7,0.7,1.4,1.1,2,1.1c0.4,0,0.7-0.1,1-0.2c0.3-0.1,0.5-0.3,0.7-0.4v2.6l1.6,1V7.4h1.4V6.2H258.5L258.5,6.2z M260.9,12V8l2.6,3.2
		c-0.3,0.3-0.6,0.5-0.9,0.6c-0.4,0.1-0.7,0.2-1.1,0.2H260.9L260.9,12z M261.3,7.4h2.6v3.2L261.3,7.4L261.3,7.4z M266.8,6.6
		c0.2-0.1,0.4-0.2,0.6-0.3c0.2-0.1,0.5-0.1,0.8-0.1c0.5,0,1.1,0.3,1.7,0.9c0.6,0.6,0.9,1.2,0.9,1.7v1.8h1.8V7.4h-1l-0.8-1.2h4.9v1.2
		h-1.4v8.9l-1.6-1V12h-1.8v0.9c0,0.3-0.1,0.5-0.2,0.6c-0.2,0.2-0.3,0.3-0.6,0.3c-0.4,0-0.8-0.3-1.4-0.9c-0.6-0.6-0.9-1.1-0.9-1.5
		c0-0.2,0.1-0.4,0.2-0.6c0.1-0.2,0.3-0.2,0.5-0.2h0.8V7.8c0-0.2-0.1-0.3-0.2-0.4c-0.1-0.1-0.3-0.2-0.4-0.2c-0.1,0-0.3,0.1-0.4,0.2
		c-0.1,0.1-0.3,0.3-0.4,0.6L266.8,6.6L266.8,6.6z M272.2,2.6l1.2-1.2l1.2,1.2l-1.2,1.2L272.2,2.6L272.2,2.6z M279.9,6.2h7.8v1.2
		h-1.4v8.9l-1.6-1v-2.1c-0.2,0.3-0.5,0.5-0.8,0.6c-0.3,0.1-0.6,0.2-0.9,0.2c-0.5,0-1-0.4-1.6-1.1c-0.6-0.7-0.9-1.4-0.9-2
		c0-0.5,0.2-0.9,0.6-1.3c0.4-0.4,0.9-0.5,1.4-0.5c0.4,0,0.8,0.1,1.2,0.4c0.4,0.3,0.7,0.6,1,1v-3h-4.8V6.2L279.9,6.2z M281.4,12.1
		c0.1,0.1,0.3,0.2,0.5,0.2c0.2,0.1,0.4,0.1,0.6,0.1c0.4,0,0.8-0.1,1.2-0.3c0.4-0.2,0.7-0.5,1-0.9c-0.2-0.3-0.5-0.5-0.7-0.6
		c-0.3-0.1-0.6-0.2-0.9-0.2c-0.5,0-0.9,0.2-1.3,0.5C281.5,11.3,281.4,11.7,281.4,12.1L281.4,12.1z M284.2,3.3c0,0.5,0.1,1,0.3,1.5
		c0.2,0.5,0.5,0.9,0.9,1.2h0.6c-0.3-0.3-0.5-0.6-0.6-0.9c-0.1-0.3-0.2-0.7-0.2-1c0-0.4,0.1-0.7,0.4-0.9c0.2-0.3,0.5-0.4,0.9-0.4
		c0.6,0,1.2,0.3,1.7,0.9c0.5,0.6,0.9,1.4,1,2.4h-1.8v1.2h1.3v7.9l1.6,1V7.4h1.4V6.2h-2c-0.2-1.4-0.7-2.6-1.4-3.5
		c-0.7-0.9-1.4-1.4-2.2-1.4c-0.5,0-1,0.2-1.4,0.6C284.4,2.3,284.2,2.8,284.2,3.3L284.2,3.3z M291.3,6.2h5.8v1.2h-2.6
		c0.3,0.3,0.5,0.7,0.6,1.1c0.1,0.4,0.2,0.9,0.2,1.3c0,0.5-0.1,0.9-0.4,1.4c-0.3,0.4-0.6,0.8-1.1,1.1c0,0.1,0.1,0.3,0.2,0.5
		c0.1,0.2,0.3,0.4,0.5,0.7l2.3,2.6l-0.6,0.4l-3.7-4.4c-0.2-0.3-0.4-0.5-0.5-0.8c-0.1-0.3-0.2-0.5-0.2-0.7c0-0.2,0.1-0.4,0.2-0.5
		c0.1-0.1,0.3-0.2,0.5-0.2c0.2,0,0.3,0.1,0.5,0.2c0.1,0.1,0.2,0.3,0.3,0.5c0.3-0.2,0.5-0.4,0.7-0.7c0.2-0.3,0.2-0.7,0.2-1.1
		c0-0.3,0-0.5-0.1-0.7c-0.1-0.2-0.1-0.4-0.2-0.6h-2.5V6.2L291.3,6.2z M293.7,2.6l1.2-1.2l1.2,1.2l-1.2,1.2L293.7,2.6L293.7,2.6z
		 M301.6,16.3L301.6,16.3L301.6,16.3L301.6,16.3L301.6,16.3L301.6,16.3z M305.4,16.3V5.1l1.6,1v11.1L305.4,16.3L305.4,16.3z
		 M309.4,16.3V5.1l1.6,1v11.1L309.4,16.3z"/>
</g>
<g>
	<path class="st0" d="M4.3,167.4c0,3.9,0,5.9-1.5,7.5c-0.4,0.4-0.7,0.6-1,0.8c-0.3,0.2-0.4,0.3-0.4,0.4c0,0.1,0.1,0.2,0.2,0.2
		c0.1,0,0.3,0,0.4-0.1c0.4-0.2,0.7-0.4,1-0.5c1.9-1.2,3-2.6,3.4-3.8c0.4-1.1,0.5-2.4,0.5-3.5c0-1-0.1-2-0.1-2.8v-3.7
		c0-3,0-3.6,0-4.2c0-0.7,0.2-1,0.7-1.1c0.2,0,0.4-0.1,0.6-0.1c0.2,0,0.4,0,0.4-0.2c0-0.1-0.1-0.2-0.4-0.2c-0.8,0-2,0.1-2.5,0.1
		c-0.5,0-1.8-0.1-2.8-0.1c-0.3,0-0.4,0-0.4,0.2c0,0.1,0.1,0.2,0.3,0.2c0.3,0,0.6,0,0.8,0.1c0.7,0.1,0.8,0.5,0.9,1.1
		c0,0.6,0,1.2,0,4.2V167.4L4.3,167.4z M17.9,165.8h-4.5c-0.1,0-0.1,0-0.2,0.2l-1.1,2.7c-0.2,0.5-0.3,1-0.3,1.2
		c0,0.4,0.2,0.6,0.8,0.6H13c0.2,0,0.3,0,0.3,0.2c0,0.2-0.1,0.2-0.3,0.2c-0.6,0-1.5-0.1-2.1-0.1c-0.2,0-1.3,0.1-2.4,0.1
		c-0.3,0-0.4,0-0.4-0.2c0-0.1,0.1-0.2,0.2-0.2c0.2,0,0.5,0,0.6,0c0.9-0.1,1.3-0.8,1.7-1.8l5-12.4c0.2-0.6,0.4-0.8,0.6-0.8
		c0.2,0,0.3,0.2,0.5,0.6c0.5,1.1,3.7,9.1,5,12.2c0.8,1.8,1.3,2.1,1.8,2.2c0.3,0.1,0.6,0.1,0.8,0.1c0.2,0,0.3,0,0.3,0.2
		c0,0.2-0.2,0.2-0.9,0.2c-0.7,0-2.2,0-3.8,0c-0.4,0-0.6,0-0.6-0.2c0-0.1,0.1-0.2,0.3-0.2c0.1,0,0.3-0.2,0.2-0.5l-1.6-4.1
		C18.1,165.9,18,165.8,17.9,165.8L17.9,165.8z M13.8,164.8h3.7c0.1,0,0.1-0.1,0.1-0.1l-1.8-4.9c0-0.1,0-0.2-0.1-0.2
		c-0.1,0-0.1,0.1-0.1,0.2l-1.8,4.9C13.7,164.8,13.8,164.8,13.8,164.8L13.8,164.8z M26.7,165.1c0,1.9,0,3.5-0.1,4.4
		c-0.1,0.6-0.2,0.9-0.6,1c-0.2,0-0.4,0.1-0.7,0.1c-0.2,0-0.3,0.1-0.3,0.2c0,0.1,0.1,0.2,0.4,0.2c0.8,0,2.1-0.1,2.5-0.1
		c0.5,0,1.8,0.1,3.1,0.1c0.2,0,0.4-0.1,0.4-0.2c0-0.1-0.1-0.2-0.3-0.2c-0.3,0-0.7,0-1-0.1c-0.6-0.1-0.7-0.4-0.8-1
		c-0.1-0.9-0.1-2.4-0.1-4.4v-3.5c0-3,0-3.6,0-4.2c0-0.7,0.2-1,0.7-1.1c0.2,0,0.4-0.1,0.6-0.1c0.2,0,0.3,0,0.3-0.2
		c0-0.1-0.2-0.2-0.4-0.2c-0.8,0-1.9,0.1-2.4,0.1c-0.6,0-1.8-0.1-2.6-0.1c-0.3,0-0.5,0-0.5,0.2c0,0.2,0.1,0.2,0.3,0.2
		c0.2,0,0.5,0,0.7,0.1c0.4,0.1,0.6,0.4,0.7,1.1c0,0.6,0,1.2,0,4.2V165.1L26.7,165.1z M36.6,159.9L36.6,159.9c0.4,0.4,2.6,2.8,4.8,5
		c2.1,2.1,4.6,4.7,5.9,5.9c0.2,0.2,0.5,0.4,0.7,0.4c0.2,0,0.3-0.2,0.3-0.6l0.2-12.6c0-1.1,0.2-1.5,0.7-1.7c0.2-0.1,0.4-0.1,0.6-0.1
		c0.2,0,0.4-0.1,0.4-0.2c0-0.2-0.2-0.2-0.5-0.2c-1,0-1.7,0.1-2,0.1c-0.4,0-1.4-0.1-2.4-0.1c-0.3,0-0.5,0-0.5,0.2
		c0,0.1,0.1,0.2,0.3,0.2c0.3,0,0.8,0,1.1,0.1c0.5,0.2,0.7,0.6,0.7,1.8l0.2,9H47c-0.3-0.3-3-3.2-4.4-4.6c-2.9-2.9-6-6.1-6.2-6.4
		c-0.3-0.4-0.5-0.6-0.7-0.6c-0.2,0-0.3,0.3-0.3,0.7L35.2,168c0,1.7-0.1,2.3-0.6,2.5c-0.3,0.1-0.6,0.1-0.9,0.1c-0.2,0-0.3,0-0.3,0.2
		c0,0.2,0.2,0.2,0.4,0.2c1,0,2-0.1,2.2-0.1c0.4,0,1.2,0.1,2.5,0.1c0.3,0,0.5,0,0.5-0.2c0-0.1-0.1-0.2-0.3-0.2c-0.3,0-0.7,0-1-0.1
		c-0.4-0.1-0.7-0.7-0.7-2.2L36.6,159.9L36.6,159.9z M60.7,165.1c0,1.9,0,3.5-0.1,4.4c-0.1,0.6-0.2,0.9-0.6,1c-0.2,0-0.4,0.1-0.7,0.1
		c-0.2,0-0.3,0.1-0.3,0.2c0,0.1,0.1,0.2,0.4,0.2c0.8,0,2.1-0.1,2.5-0.1c0.5,0,1.8,0.1,3.1,0.1c0.2,0,0.4-0.1,0.4-0.2
		c0-0.1-0.1-0.2-0.3-0.2c-0.3,0-0.7,0-1-0.1c-0.6-0.1-0.7-0.4-0.8-1c-0.1-0.9-0.1-2.4-0.1-4.4v-3.5c0-3,0-3.6,0-4.2
		c0-0.7,0.2-1,0.7-1.1c0.2,0,0.4-0.1,0.6-0.1c0.2,0,0.3,0,0.3-0.2c0-0.1-0.2-0.2-0.4-0.2c-0.8,0-1.9,0.1-2.4,0.1
		c-0.6,0-1.8-0.1-2.6-0.1c-0.3,0-0.5,0-0.5,0.2c0,0.2,0.1,0.2,0.3,0.2c0.2,0,0.5,0,0.7,0.1c0.4,0.1,0.6,0.4,0.7,1.1
		c0,0.6,0,1.2,0,4.2V165.1L60.7,165.1z M70.6,159.9L70.6,159.9c0.4,0.4,2.6,2.8,4.8,5c2.1,2.1,4.6,4.7,5.9,5.9
		c0.2,0.2,0.5,0.4,0.7,0.4c0.2,0,0.3-0.2,0.3-0.6l0.2-12.6c0-1.1,0.2-1.5,0.7-1.7c0.2-0.1,0.4-0.1,0.6-0.1c0.2,0,0.4-0.1,0.4-0.2
		c0-0.2-0.2-0.2-0.5-0.2c-1,0-1.7,0.1-2,0.1c-0.4,0-1.4-0.1-2.4-0.1c-0.3,0-0.5,0-0.5,0.2c0,0.1,0.1,0.2,0.3,0.2
		c0.3,0,0.8,0,1.1,0.1c0.5,0.2,0.7,0.6,0.7,1.8l0.2,9H81c-0.3-0.3-3-3.2-4.4-4.6c-2.9-2.9-6-6.1-6.2-6.4c-0.3-0.4-0.5-0.6-0.7-0.6
		c-0.2,0-0.3,0.3-0.3,0.7L69.2,168c0,1.7-0.1,2.3-0.6,2.5c-0.3,0.1-0.6,0.1-0.9,0.1c-0.2,0-0.3,0-0.3,0.2c0,0.2,0.2,0.2,0.4,0.2
		c1,0,2-0.1,2.2-0.1c0.4,0,1.2,0.1,2.5,0.1c0.3,0,0.5,0,0.5-0.2c0-0.1-0.1-0.2-0.3-0.2c-0.3,0-0.7,0-1-0.1c-0.4-0.1-0.7-0.7-0.7-2.2
		L70.6,159.9L70.6,159.9z M91.3,165.1c0,1.8,0,3.4-0.1,4.3c-0.1,0.6-0.2,1-0.6,1.1c-0.2,0-0.4,0.1-0.7,0.1c-0.2,0-0.3,0.1-0.3,0.2
		c0,0.1,0.1,0.2,0.4,0.2c0.8,0,2.1-0.1,2.5-0.1c0.6,0,1.8,0.1,3.1,0.1c0.2,0,0.4-0.1,0.4-0.2c0-0.1-0.1-0.2-0.3-0.2
		c-0.3,0-0.7,0-1-0.1c-0.6-0.1-0.7-0.5-0.8-1.1c-0.1-0.9-0.1-2.4-0.1-4.3v-8.2l2.5,0.1c1.8,0,2.3,0.6,2.4,1.1l0,0.2
		c0,0.3,0.1,0.4,0.2,0.4c0.1,0,0.2-0.1,0.2-0.3c0-0.5,0.1-1.9,0.1-2.3c0-0.3,0-0.4-0.2-0.4c-0.1,0-0.2,0-0.5,0.1
		c-0.3,0-0.7,0.1-1.4,0.1h-7.9c-0.7,0-1.4,0-2-0.1c-0.5,0-0.7-0.2-0.9-0.2c-0.1,0-0.2,0.1-0.2,0.4c0,0.2-0.4,2-0.4,2.3
		c0,0.2,0,0.3,0.2,0.3c0.1,0,0.2-0.1,0.2-0.2c0-0.2,0.1-0.4,0.3-0.7c0.3-0.4,0.8-0.5,1.9-0.6l3-0.1V165.1L91.3,165.1z M102.9,165.1
		c0,1.8,0,3.4-0.1,4.3c-0.1,0.6-0.2,1-0.6,1.1c-0.2,0-0.4,0.1-0.7,0.1c-0.2,0-0.3,0.1-0.3,0.2c0,0.1,0.1,0.2,0.4,0.2
		c0.4,0,0.9,0,1.4,0c0.5,0,0.9,0,1.1,0c0.6,0,1.2,0,2.1,0.1c0.9,0,2,0.1,3.5,0.1c0.8,0,0.9,0,1.1-0.5c0.1-0.4,0.3-1.8,0.3-2.2
		c0-0.2,0-0.4-0.2-0.4c-0.1,0-0.2,0.1-0.2,0.3c-0.1,0.8-0.4,1.2-0.9,1.5c-0.5,0.2-1.4,0.2-1.9,0.2c-2,0-2.4-0.3-2.4-1.7
		c0-0.6,0-2.4,0-3.1v-1.6c0-0.1,0-0.2,0.1-0.2c0.5,0,2.5,0,2.8,0.1c0.7,0.1,1,0.4,1.1,0.8c0.1,0.3,0.1,0.5,0.1,0.7
		c0,0.1,0,0.2,0.2,0.2c0.2,0,0.2-0.2,0.2-0.4c0-0.1,0.1-0.9,0.1-1.3c0.1-1,0.2-1.3,0.2-1.5c0-0.1-0.1-0.2-0.1-0.2
		c-0.1,0-0.2,0.1-0.3,0.3c-0.2,0.2-0.5,0.3-1,0.3c-0.5,0-2.8,0-3.2,0c-0.1,0-0.1-0.1-0.1-0.2v-5.1c0-0.1,0-0.2,0.1-0.2
		c0.4,0,2.5,0,2.8,0.1c1,0.1,1.2,0.4,1.3,0.7c0.1,0.2,0.1,0.6,0.1,0.7c0,0.2,0,0.3,0.2,0.3c0.1,0,0.2-0.1,0.2-0.2
		c0-0.2,0.1-1.1,0.1-1.3c0.1-0.9,0.2-1.2,0.2-1.3c0-0.1,0-0.2-0.1-0.2c-0.1,0-0.2,0.1-0.3,0.1c-0.2,0-0.5,0.1-0.9,0.1
		c-0.4,0-4.4,0-5,0c-0.3,0-0.7,0-1.3,0c-0.5,0-1.1,0-1.6,0c-0.3,0-0.4,0-0.4,0.2c0,0.1,0.1,0.2,0.3,0.2c0.3,0,0.6,0,0.8,0.1
		c0.7,0.1,0.8,0.5,0.9,1.1c0,0.6,0,1.2,0,4.2V165.1L102.9,165.1z M115.5,165.1c0,1.8,0,3.4-0.1,4.3c-0.1,0.6-0.2,1-0.6,1.1
		c-0.2,0-0.4,0.1-0.7,0.1c-0.2,0-0.3,0.1-0.3,0.2c0,0.1,0.1,0.2,0.4,0.2c0.8,0,2.1-0.1,2.4-0.1c0.3,0,1.8,0.1,2.9,0.1
		c0.3,0,0.4-0.1,0.4-0.2c0-0.1-0.1-0.2-0.2-0.2c-0.2,0-0.7,0-1-0.1c-0.6-0.1-0.7-0.5-0.8-1.1c-0.1-0.8-0.1-2.4-0.1-4.3v-0.3
		c0-0.1,0.1-0.2,0.2-0.2l1.7,0c0.1,0,0.3,0,0.4,0.1c0.3,0.3,1.2,1.7,2,2.8c1.1,1.5,1.9,2.5,2.7,2.9c0.5,0.3,1,0.4,2.1,0.4h1.9
		c0.2,0,0.4,0,0.4-0.2c0-0.1-0.1-0.2-0.2-0.2c-0.2,0-0.3,0-0.6-0.1c-0.3-0.1-1.1-0.2-2.2-1.4c-1.2-1.2-2.6-3-4.3-5.3
		c2-1.6,2.6-3,2.6-4.5c0-1.3-0.8-2.4-1.4-2.7c-1.1-0.7-2.4-0.9-3.7-0.9c-0.6,0-2.1,0.1-2.8,0.1c-0.4,0-1.7-0.1-2.7-0.1
		c-0.3,0-0.4,0-0.4,0.2c0,0.1,0.1,0.2,0.3,0.2c0.3,0,0.6,0,0.8,0.1c0.7,0.1,0.8,0.5,0.9,1.1c0,0.6,0,1.2,0,4.2V165.1L115.5,165.1z
		 M117.9,157.1c0-0.2,0-0.2,0.2-0.3c0.2-0.1,0.6-0.1,1.1-0.1c1.2,0,3.1,0.8,3.1,3.7c0,1.6-0.6,2.6-1.2,3c-0.4,0.3-0.6,0.3-1.4,0.3
		c-0.5,0-1.1-0.1-1.5-0.2c-0.1-0.1-0.2-0.1-0.2-0.4V157.1L117.9,157.1z M131.6,159.9l0.2,8.3c0,1.6,0.3,2.1,0.7,2.2
		c0.3,0.1,0.7,0.1,1,0.1c0.2,0,0.3,0,0.3,0.2c0,0.2-0.2,0.2-0.5,0.2c-1.3,0-2.1-0.1-2.5-0.1c-0.2,0-1.1,0.1-2.2,0.1
		c-0.3,0-0.4,0-0.4-0.2c0-0.1,0.1-0.2,0.3-0.2c0.3,0,0.6,0,0.9-0.1c0.5-0.2,0.6-0.7,0.6-2.5l0.2-11.8c0-0.4,0.1-0.7,0.3-0.7
		c0.2,0,0.4,0.3,0.7,0.6c0.2,0.3,3.3,3.5,6.2,6.4c1.4,1.4,4.1,4.2,4.4,4.6h0.1l-0.2-9c0-1.2-0.2-1.6-0.7-1.8
		c-0.3-0.1-0.8-0.1-1.1-0.1c-0.2,0-0.3-0.1-0.3-0.2c0-0.2,0.2-0.2,0.5-0.2c1,0,2,0.1,2.4,0.1c0.2,0,1-0.1,2-0.1c0.3,0,0.5,0,0.5,0.2
		c0,0.1-0.1,0.2-0.4,0.2c-0.2,0-0.4,0-0.6,0.1c-0.6,0.2-0.7,0.6-0.7,1.7l-0.2,12.6c0,0.4-0.1,0.6-0.3,0.6c-0.2,0-0.5-0.2-0.7-0.4
		c-1.3-1.2-3.8-3.8-5.9-5.9C134.2,162.7,132,160.3,131.6,159.9L131.6,159.9L131.6,159.9z M154.9,165.8c0.1,0,0.2,0,0.2,0.1l1.6,4.1
		c0.1,0.2,0,0.4-0.2,0.5c-0.2,0-0.3,0.1-0.3,0.2c0,0.1,0.2,0.1,0.6,0.2c1.6,0,3.1,0,3.8,0c0.7,0,0.9,0,0.9-0.2
		c0-0.1-0.1-0.2-0.3-0.2c-0.2,0-0.5,0-0.8-0.1c-0.4-0.1-1-0.4-1.8-2.2c-1.3-3-4.5-11.1-5-12.2c-0.2-0.5-0.3-0.6-0.5-0.6
		c-0.2,0-0.3,0.2-0.6,0.8l-5,12.4c-0.4,1-0.8,1.7-1.7,1.8c-0.2,0-0.4,0-0.6,0c-0.2,0-0.2,0-0.2,0.2c0,0.2,0.1,0.2,0.4,0.2
		c1,0,2.1-0.1,2.4-0.1c0.6,0,1.5,0.1,2.1,0.1c0.2,0,0.3,0,0.3-0.2c0-0.1-0.1-0.2-0.3-0.2h-0.3c-0.6,0-0.8-0.3-0.8-0.6
		c0-0.2,0.1-0.7,0.3-1.2l1.1-2.7c0-0.1,0.1-0.2,0.2-0.2H154.9L154.9,165.8z M150.8,164.8c-0.1,0-0.1-0.1-0.1-0.1l1.8-4.9
		c0-0.1,0.1-0.2,0.1-0.2c0.1,0,0.1,0.1,0.1,0.2l1.8,4.9c0,0.1,0,0.1-0.1,0.1H150.8L150.8,164.8z M165,165.1v-8.2l-3,0.1
		c-1.2,0-1.6,0.1-1.9,0.6c-0.2,0.3-0.3,0.5-0.3,0.7c0,0.2-0.1,0.2-0.2,0.2c-0.1,0-0.2-0.1-0.2-0.3c0-0.3,0.4-2.1,0.4-2.3
		c0.1-0.3,0.1-0.4,0.2-0.4c0.2,0,0.4,0.2,0.9,0.2c0.6,0.1,1.3,0.1,2,0.1h7.9c0.6,0,1.1-0.1,1.4-0.1c0.3-0.1,0.5-0.1,0.5-0.1
		c0.1,0,0.2,0.1,0.2,0.4c0,0.4-0.1,1.8-0.1,2.3c0,0.2-0.1,0.3-0.2,0.3c-0.2,0-0.2-0.1-0.2-0.4l0-0.2c0-0.5-0.6-1.1-2.4-1.1l-2.5-0.1
		v8.2c0,1.8,0,3.4,0.1,4.3c0.1,0.6,0.2,1,0.8,1.1c0.3,0,0.7,0.1,1,0.1c0.2,0,0.3,0.1,0.3,0.2c0,0.1-0.2,0.2-0.4,0.2
		c-1.3,0-2.6-0.1-3.1-0.1c-0.5,0-1.7,0.1-2.5,0.1c-0.3,0-0.4-0.1-0.4-0.2c0-0.1,0.1-0.2,0.3-0.2c0.3,0,0.5,0,0.7-0.1
		c0.4-0.1,0.5-0.5,0.6-1.1C165,168.6,165,167,165,165.1L165,165.1z M176.6,165.1c0,1.9,0,3.5-0.1,4.4c-0.1,0.6-0.2,0.9-0.6,1
		c-0.2,0-0.4,0.1-0.7,0.1c-0.2,0-0.3,0.1-0.3,0.2c0,0.1,0.1,0.2,0.4,0.2c0.8,0,2.1-0.1,2.5-0.1c0.5,0,1.8,0.1,3.1,0.1
		c0.2,0,0.4-0.1,0.4-0.2c0-0.1-0.1-0.2-0.3-0.2c-0.3,0-0.7,0-1-0.1c-0.6-0.1-0.7-0.4-0.8-1c-0.1-0.9-0.1-2.4-0.1-4.4v-3.5
		c0-3,0-3.6,0-4.2c0-0.7,0.2-1,0.7-1.1c0.2,0,0.4-0.1,0.6-0.1c0.2,0,0.3,0,0.3-0.2c0-0.1-0.2-0.2-0.4-0.2c-0.8,0-1.9,0.1-2.4,0.1
		c-0.6,0-1.8-0.1-2.6-0.1c-0.3,0-0.5,0-0.5,0.2c0,0.2,0.1,0.2,0.3,0.2c0.2,0,0.5,0,0.7,0.1c0.4,0.1,0.6,0.4,0.7,1.1
		c0,0.6,0,1.2,0,4.2V165.1L176.6,165.1z M191.3,171.2c5.1,0,8.3-3.6,8.3-8.2c0-4.6-3.1-7.5-8.1-7.5c-6,0-8.3,4.4-8.3,7.8
		C183.2,166.9,185.5,171.2,191.3,171.2L191.3,171.2z M192.1,170.2c-3.8,0-6.1-3.3-6.1-7.5c0-5,2.6-6.3,4.9-6.3
		c3.3,0,5.9,2.8,5.9,7.3C196.8,169.5,193.5,170.2,192.1,170.2L192.1,170.2z M204.7,159.9L204.7,159.9c0.4,0.4,2.6,2.8,4.8,5
		c2.1,2.1,4.6,4.7,5.9,5.9c0.2,0.2,0.5,0.4,0.7,0.4c0.2,0,0.3-0.2,0.3-0.6l0.2-12.6c0-1.1,0.2-1.5,0.7-1.7c0.2-0.1,0.4-0.1,0.6-0.1
		c0.2,0,0.4-0.1,0.4-0.2c0-0.2-0.2-0.2-0.5-0.2c-1,0-1.7,0.1-2,0.1c-0.4,0-1.4-0.1-2.4-0.1c-0.3,0-0.5,0-0.5,0.2
		c0,0.1,0.1,0.2,0.3,0.2c0.3,0,0.8,0,1.1,0.1c0.5,0.2,0.7,0.6,0.7,1.8l0.2,9h-0.1c-0.3-0.3-3-3.2-4.4-4.6c-2.9-2.9-6-6.1-6.2-6.4
		c-0.3-0.4-0.5-0.6-0.7-0.6c-0.2,0-0.3,0.3-0.3,0.7l-0.2,11.8c0,1.7-0.1,2.3-0.6,2.5c-0.3,0.1-0.6,0.1-0.9,0.1c-0.2,0-0.3,0-0.3,0.2
		c0,0.2,0.2,0.2,0.4,0.2c1,0,2-0.1,2.2-0.1c0.4,0,1.2,0.1,2.5,0.1c0.3,0,0.5,0,0.5-0.2c0-0.1-0.1-0.2-0.3-0.2c-0.3,0-0.7,0-1-0.1
		c-0.4-0.1-0.7-0.7-0.7-2.2L204.7,159.9L204.7,159.9z M228,165.8h-4.5c-0.1,0-0.1,0-0.2,0.2l-1.1,2.7c-0.2,0.5-0.3,1-0.3,1.2
		c0,0.4,0.2,0.6,0.8,0.6h0.3c0.2,0,0.3,0,0.3,0.2c0,0.2-0.1,0.2-0.3,0.2c-0.6,0-1.5-0.1-2.1-0.1c-0.2,0-1.3,0.1-2.4,0.1
		c-0.3,0-0.4,0-0.4-0.2c0-0.1,0.1-0.2,0.2-0.2c0.2,0,0.5,0,0.6,0c0.9-0.1,1.3-0.8,1.7-1.8l5-12.4c0.2-0.6,0.4-0.8,0.6-0.8
		c0.2,0,0.3,0.2,0.5,0.6c0.5,1.1,3.7,9.1,5,12.2c0.8,1.8,1.3,2.1,1.8,2.2c0.3,0.1,0.6,0.1,0.8,0.1c0.2,0,0.3,0,0.3,0.2
		c0,0.2-0.2,0.2-0.9,0.2c-0.7,0-2.2,0-3.8,0c-0.4,0-0.6,0-0.6-0.2c0-0.1,0.1-0.2,0.3-0.2c0.1,0,0.3-0.2,0.2-0.5l-1.6-4.1
		C228.1,165.9,228.1,165.8,228,165.8L228,165.8z M223.9,164.8h3.7c0.1,0,0.1-0.1,0.1-0.1l-1.8-4.9c0-0.1,0-0.2-0.1-0.2
		s-0.1,0.1-0.1,0.2l-1.8,4.9C223.8,164.8,223.8,164.8,223.9,164.8L223.9,164.8z M239.2,161.6c0-3,0-3.6,0-4.2c0-0.7,0.2-1,0.7-1.1
		c0.2,0,0.6-0.1,0.8-0.1c0.2,0,0.4,0,0.4-0.2c0-0.1-0.1-0.2-0.4-0.2c-0.8,0-2.2,0.1-2.7,0.1c-0.5,0-1.8-0.1-2.7-0.1
		c-0.3,0-0.4,0-0.4,0.2c0,0.1,0.1,0.2,0.3,0.2c0.3,0,0.5,0,0.7,0.1c0.7,0.1,0.8,0.5,0.9,1.1c0,0.6,0,1.2,0,4.2v3.5
		c0,1.8,0,3.4-0.1,4.3c-0.1,0.6-0.2,1-0.6,1.1c-0.2,0-0.4,0.1-0.7,0.1c-0.2,0-0.3,0.1-0.3,0.2c0,0.1,0.1,0.2,0.4,0.2
		c0.4,0,0.9,0,1.4,0c0.5,0,0.9,0,1.1,0c0.8,0,1.5,0,2.4,0.1c0.9,0,1.9,0.1,3.4,0.1c1,0,1.1-0.1,1.3-0.5c0.2-0.6,0.3-2.1,0.3-2.3
		c0-0.2,0-0.3-0.2-0.3c-0.2,0-0.2,0.1-0.2,0.3c0,0.4-0.3,0.9-0.5,1.2c-0.5,0.5-1.3,0.6-2.3,0.6c-1.6,0-2.1-0.1-2.4-0.4
		c-0.4-0.4-0.4-1.7-0.4-4.3V161.6L239.2,161.6z M257.5,165.1c0,1.8,0,3.4-0.1,4.3c-0.1,0.6-0.2,1-0.6,1.1c-0.2,0-0.4,0.1-0.7,0.1
		c-0.2,0-0.3,0.1-0.3,0.2c0,0.1,0.1,0.2,0.4,0.2c0.8,0,2.1-0.1,2.5-0.1c0.6,0,1.8,0.1,3.1,0.1c0.2,0,0.4-0.1,0.4-0.2
		c0-0.1-0.1-0.2-0.3-0.2c-0.3,0-0.7,0-1-0.1c-0.6-0.1-0.7-0.5-0.8-1.1c-0.1-0.9-0.1-2.4-0.1-4.3v-8.2l2.5,0.1c1.8,0,2.3,0.6,2.4,1.1
		l0,0.2c0,0.3,0.1,0.4,0.2,0.4c0.1,0,0.2-0.1,0.2-0.3c0-0.5,0.1-1.9,0.1-2.3c0-0.3,0-0.4-0.2-0.4c-0.1,0-0.2,0-0.5,0.1
		c-0.3,0-0.7,0.1-1.4,0.1h-7.9c-0.7,0-1.4,0-2-0.1c-0.5,0-0.7-0.2-0.9-0.2c-0.1,0-0.2,0.1-0.2,0.4c0,0.2-0.4,2-0.4,2.3
		c0,0.2,0,0.3,0.2,0.3c0.1,0,0.2-0.1,0.2-0.2c0-0.2,0.1-0.4,0.3-0.7c0.3-0.4,0.8-0.5,1.9-0.6l3-0.1V165.1z"/>
	<path class="st0" d="M269.1,165.1c0,1.8,0,3.4-0.1,4.3c-0.1,0.6-0.2,1-0.6,1.1c-0.2,0-0.4,0.1-0.7,0.1c-0.2,0-0.3,0.1-0.3,0.2
		c0,0.1,0.1,0.2,0.4,0.2c0.8,0,2.1-0.1,2.4-0.1c0.3,0,1.8,0.1,2.9,0.1c0.3,0,0.4-0.1,0.4-0.2c0-0.1-0.1-0.2-0.2-0.2
		c-0.2,0-0.7,0-1-0.1c-0.6-0.1-0.7-0.5-0.8-1.1c-0.1-0.8-0.1-2.4-0.1-4.3v-0.3c0-0.1,0.1-0.2,0.2-0.2l1.7,0c0.1,0,0.3,0,0.4,0.1
		c0.3,0.3,1.2,1.7,2,2.8c1.1,1.5,1.9,2.5,2.7,2.9c0.5,0.3,1,0.4,2.1,0.4h1.9c0.2,0,0.4,0,0.4-0.2c0-0.1-0.1-0.2-0.2-0.2
		c-0.2,0-0.3,0-0.6-0.1c-0.3-0.1-1.1-0.2-2.2-1.4c-1.2-1.2-2.6-3-4.3-5.3c2-1.6,2.6-3,2.6-4.5c0-1.3-0.8-2.4-1.4-2.7
		c-1.1-0.7-2.4-0.9-3.7-0.9c-0.6,0-2.1,0.1-2.8,0.1c-0.4,0-1.7-0.1-2.7-0.1c-0.3,0-0.4,0-0.4,0.2c0,0.1,0.1,0.2,0.3,0.2
		c0.3,0,0.6,0,0.8,0.1c0.7,0.1,0.8,0.5,0.9,1.1c0,0.6,0,1.2,0,4.2V165.1L269.1,165.1z M271.4,157.1c0-0.2,0-0.2,0.2-0.3
		c0.2-0.1,0.6-0.1,1.1-0.1c1.2,0,3.1,0.8,3.1,3.7c0,1.6-0.6,2.6-1.2,3c-0.4,0.3-0.6,0.3-1.4,0.3c-0.5,0-1.1-0.1-1.5-0.2
		c-0.1-0.1-0.2-0.1-0.2-0.4V157.1L271.4,157.1z M289.5,165.8H285c-0.1,0-0.1,0-0.2,0.2l-1.1,2.7c-0.2,0.5-0.3,1-0.3,1.2
		c0,0.4,0.2,0.6,0.8,0.6h0.3c0.2,0,0.3,0,0.3,0.2c0,0.2-0.1,0.2-0.3,0.2c-0.6,0-1.5-0.1-2.1-0.1c-0.2,0-1.3,0.1-2.4,0.1
		c-0.3,0-0.4,0-0.4-0.2c0-0.1,0.1-0.2,0.2-0.2c0.2,0,0.5,0,0.6,0c0.9-0.1,1.3-0.8,1.7-1.8l5-12.4c0.2-0.6,0.4-0.8,0.6-0.8
		c0.2,0,0.3,0.2,0.5,0.6c0.5,1.1,3.7,9.1,5,12.2c0.8,1.8,1.3,2.1,1.8,2.2c0.3,0.1,0.6,0.1,0.8,0.1c0.2,0,0.3,0,0.3,0.2
		c0,0.2-0.2,0.2-0.9,0.2c-0.7,0-2.2,0-3.8,0c-0.4,0-0.6,0-0.6-0.2c0-0.1,0.1-0.2,0.3-0.2c0.1,0,0.3-0.2,0.2-0.5l-1.6-4.1
		C289.6,165.9,289.6,165.8,289.5,165.8L289.5,165.8z M285.4,164.8h3.7c0.1,0,0.1-0.1,0.1-0.1l-1.8-4.9c0-0.1,0-0.2-0.1-0.2
		c-0.1,0-0.1,0.1-0.1,0.2l-1.8,4.9C285.3,164.8,285.3,164.8,285.4,164.8L285.4,164.8z M298.2,165.1c0,1.8,0,3.4-0.1,4.3
		c-0.1,0.6-0.2,1-0.6,1.1c-0.2,0-0.4,0.1-0.7,0.1c-0.2,0-0.3,0.1-0.3,0.2c0,0.1,0.1,0.2,0.4,0.2c0.4,0,0.9,0,1.4,0
		c0.5,0,0.9,0,1.1,0c0.5,0,1.2,0.1,2,0.1s1.6,0.1,2.3,0.1c3.7,0,5.8-1.4,6.7-2.4c1.1-1.1,2.2-3.1,2.2-5.6c0-2.4-0.9-4-1.9-5.1
		c-2.2-2.3-5.5-2.3-8-2.3c-1.2,0-2.5,0.1-3.1,0.1c-0.6,0-1.8-0.1-2.9-0.1c-0.3,0-0.4,0-0.4,0.2c0,0.1,0.1,0.2,0.3,0.2
		c0.3,0,0.6,0,0.8,0.1c0.7,0.1,0.8,0.5,0.9,1.1c0,0.6,0,1.2,0,4.2V165.1L298.2,165.1z M300.7,161.3c0-1.6,0-3.3,0-4
		c0-0.2,0.1-0.3,0.2-0.4c0.2-0.1,0.9-0.1,1.3-0.1c1.6,0,3.8,0.2,5.7,2c0.9,0.8,1.9,2.5,1.9,5c0,2.1-0.4,3.9-1.7,5
		c-1.2,1-2.6,1.4-4.6,1.4c-1.6,0-2.4-0.4-2.6-0.8c-0.2-0.2-0.2-1-0.2-1.5c0-0.4,0-1.9,0-4V161.3L300.7,161.3z M316.7,165.1
		c0,1.8,0,3.4-0.1,4.3c-0.1,0.6-0.2,1-0.6,1.1c-0.2,0-0.4,0.1-0.7,0.1c-0.2,0-0.3,0.1-0.3,0.2c0,0.1,0.1,0.2,0.4,0.2
		c0.4,0,0.9,0,1.4,0c0.5,0,0.9,0,1.1,0c0.6,0,1.2,0,2.1,0.1c0.9,0,2,0.1,3.5,0.1c0.8,0,0.9,0,1.1-0.5c0.1-0.4,0.3-1.8,0.3-2.2
		c0-0.2,0-0.4-0.2-0.4c-0.1,0-0.2,0.1-0.2,0.3c-0.1,0.8-0.4,1.2-0.9,1.5c-0.5,0.2-1.4,0.2-1.9,0.2c-2,0-2.4-0.3-2.4-1.7
		c0-0.6,0-2.4,0-3.1v-1.6c0-0.1,0-0.2,0.1-0.2c0.5,0,2.5,0,2.8,0.1c0.7,0.1,1,0.4,1.1,0.8c0.1,0.3,0.1,0.5,0.1,0.7
		c0,0.1,0,0.2,0.2,0.2c0.2,0,0.2-0.2,0.2-0.4c0-0.1,0.1-0.9,0.1-1.3c0.1-1,0.2-1.3,0.2-1.5c0-0.1-0.1-0.2-0.1-0.2
		c-0.1,0-0.2,0.1-0.3,0.3c-0.2,0.2-0.5,0.3-1,0.3c-0.5,0-2.8,0-3.2,0c-0.1,0-0.1-0.1-0.1-0.2v-5.1c0-0.1,0-0.2,0.1-0.2
		c0.4,0,2.5,0,2.8,0.1c1,0.1,1.2,0.4,1.3,0.7c0.1,0.2,0.1,0.6,0.1,0.7c0,0.2,0,0.3,0.2,0.3c0.1,0,0.2-0.1,0.2-0.2
		c0-0.2,0.1-1.1,0.1-1.3c0.1-0.9,0.2-1.2,0.2-1.3c0-0.1,0-0.2-0.1-0.2c-0.1,0-0.2,0.1-0.3,0.1c-0.2,0-0.5,0.1-0.9,0.1
		c-0.4,0-4.4,0-5,0c-0.3,0-0.7,0-1.3,0c-0.5,0-1.1,0-1.6,0c-0.3,0-0.4,0-0.4,0.2c0,0.1,0.1,0.2,0.3,0.2c0.3,0,0.6,0,0.8,0.1
		c0.7,0.1,0.8,0.5,0.9,1.1c0,0.6,0,1.2,0,4.2V165.1L316.7,165.1z M341.3,171.2c5.1,0,8.3-3.6,8.3-8.2c0-4.6-3.1-7.5-8.1-7.5
		c-6,0-8.3,4.4-8.3,7.8C333.2,166.9,335.5,171.2,341.3,171.2L341.3,171.2z M342.1,170.2c-3.8,0-6.1-3.3-6.1-7.5c0-5,2.6-6.3,4.9-6.3
		c3.3,0,5.9,2.8,5.9,7.3C346.8,169.5,343.5,170.2,342.1,170.2L342.1,170.2z M353.8,165.1c0,1.8,0,3.4-0.1,4.3
		c-0.1,0.6-0.2,1-0.6,1.1c-0.2,0-0.4,0.1-0.7,0.1c-0.2,0-0.3,0.1-0.3,0.2c0,0.1,0.1,0.2,0.4,0.2c0.8,0,2.1-0.1,2.4-0.1
		c0.3,0,1.8,0.1,2.9,0.1c0.3,0,0.4-0.1,0.4-0.2c0-0.1-0.1-0.2-0.2-0.2c-0.2,0-0.7,0-1-0.1c-0.6-0.1-0.7-0.5-0.8-1.1
		c-0.1-0.8-0.1-2.4-0.1-4.3v-0.3c0-0.1,0.1-0.2,0.2-0.2l1.7,0c0.1,0,0.3,0,0.4,0.1c0.3,0.3,1.2,1.7,2,2.8c1.1,1.5,1.9,2.5,2.7,2.9
		c0.5,0.3,1,0.4,2.1,0.4h1.9c0.2,0,0.4,0,0.4-0.2c0-0.1-0.1-0.2-0.2-0.2c-0.2,0-0.3,0-0.6-0.1c-0.3-0.1-1.1-0.2-2.2-1.4
		c-1.2-1.2-2.6-3-4.3-5.3c2-1.6,2.6-3,2.6-4.5c0-1.3-0.8-2.4-1.4-2.7c-1.1-0.7-2.4-0.9-3.7-0.9c-0.6,0-2.1,0.1-2.8,0.1
		c-0.4,0-1.7-0.1-2.7-0.1c-0.3,0-0.4,0-0.4,0.2c0,0.1,0.1,0.2,0.3,0.2c0.3,0,0.6,0,0.8,0.1c0.7,0.1,0.8,0.5,0.9,1.1
		c0,0.6,0,1.2,0,4.2V165.1L353.8,165.1z M356.1,157.1c0-0.2,0-0.2,0.2-0.3c0.2-0.1,0.6-0.1,1.1-0.1c1.2,0,3.1,0.8,3.1,3.7
		c0,1.6-0.6,2.6-1.2,3c-0.4,0.3-0.6,0.3-1.4,0.3c-0.5,0-1.1-0.1-1.5-0.2c-0.1-0.1-0.2-0.1-0.2-0.4V157.1L356.1,157.1z M380.9,167.4
		v2.2c0,0.5,0,0.6-0.3,0.7c-1.3,0.7-3.3,0.9-4.8,0.9c-4.9,0-9.2-2.3-9.2-7.8c0-3.2,1.7-5.4,3.5-6.5c1.9-1.2,3.7-1.3,5.4-1.3
		c1.4,0,3.1,0.2,3.5,0.3c0.4,0.1,1.1,0.2,1.6,0.2c0.2,0,0.3,0.1,0.3,0.2c0,0.2-0.1,0.8-0.1,3.3c0,0.3-0.1,0.4-0.2,0.4
		c-0.1,0-0.2-0.1-0.2-0.3c-0.1-0.5-0.2-1.1-0.7-1.7c-0.6-0.6-2.2-1.6-4.5-1.6c-1.1,0-2.6,0.1-4,1.2c-1.1,0.9-1.8,2.4-1.8,4.9
		c0,4.3,2.7,7.5,7,7.5c0.5,0,1.2,0,1.7-0.2c0.3-0.1,0.4-0.4,0.4-0.7v-1.9c0-1,0-1.8,0-2.4c0-0.7-0.2-1-0.9-1.1
		c-0.2,0-0.5-0.1-0.8-0.1c-0.2,0-0.3,0-0.3-0.2c0-0.2,0.1-0.2,0.4-0.2c1,0,2.3,0.1,2.9,0.1c0.6,0,1.7-0.1,2.3-0.1
		c0.3,0,0.4,0,0.4,0.2c0,0.1-0.1,0.2-0.3,0.2c-0.2,0-0.3,0-0.5,0.1c-0.5,0.1-0.7,0.4-0.8,1.1C380.9,165.6,380.9,166.4,380.9,167.4
		L380.9,167.4z M391.8,165.8c0.1,0,0.2,0,0.2,0.1l1.6,4.1c0.1,0.2,0,0.4-0.2,0.5c-0.2,0-0.3,0.1-0.3,0.2c0,0.1,0.2,0.1,0.6,0.2
		c1.6,0,3.1,0,3.8,0c0.7,0,0.9,0,0.9-0.2c0-0.1-0.1-0.2-0.3-0.2c-0.2,0-0.5,0-0.8-0.1c-0.4-0.1-1-0.4-1.8-2.2
		c-1.3-3-4.5-11.1-5-12.2c-0.2-0.5-0.3-0.6-0.5-0.6c-0.2,0-0.3,0.2-0.6,0.8l-5,12.4c-0.4,1-0.8,1.7-1.7,1.8c-0.2,0-0.4,0-0.6,0
		c-0.2,0-0.2,0-0.2,0.2c0,0.2,0.1,0.2,0.4,0.2c1,0,2.1-0.1,2.4-0.1c0.6,0,1.5,0.1,2.1,0.1c0.2,0,0.3,0,0.3-0.2
		c0-0.1-0.1-0.2-0.3-0.2h-0.3c-0.6,0-0.8-0.3-0.8-0.6c0-0.2,0.1-0.7,0.3-1.2l1.1-2.7c0-0.1,0.1-0.2,0.2-0.2H391.8L391.8,165.8z
		 M387.7,164.8c-0.1,0-0.1-0.1-0.1-0.1l1.8-4.9c0-0.1,0.1-0.2,0.1-0.2c0.1,0,0.1,0.1,0.1,0.2l1.8,4.9c0,0.1,0,0.1-0.1,0.1H387.7
		L387.7,164.8z M401.4,159.9l0.2,8.3c0,1.6,0.3,2.1,0.7,2.2c0.3,0.1,0.7,0.1,1,0.1c0.2,0,0.3,0,0.3,0.2c0,0.2-0.2,0.2-0.5,0.2
		c-1.3,0-2.1-0.1-2.5-0.1c-0.2,0-1.1,0.1-2.2,0.1c-0.3,0-0.4,0-0.4-0.2c0-0.1,0.1-0.2,0.3-0.2c0.3,0,0.6,0,0.9-0.1
		c0.5-0.2,0.6-0.7,0.6-2.5l0.2-11.8c0-0.4,0.1-0.7,0.3-0.7c0.2,0,0.4,0.3,0.7,0.6c0.2,0.3,3.3,3.5,6.2,6.4c1.4,1.4,4.1,4.2,4.4,4.6
		h0.1l-0.2-9c0-1.2-0.2-1.6-0.7-1.8c-0.3-0.1-0.8-0.1-1.1-0.1c-0.2,0-0.3-0.1-0.3-0.2c0-0.2,0.2-0.2,0.5-0.2c1,0,2,0.1,2.4,0.1
		c0.2,0,1-0.1,2-0.1c0.3,0,0.5,0,0.5,0.2c0,0.1-0.1,0.2-0.4,0.2c-0.2,0-0.4,0-0.6,0.1c-0.6,0.2-0.7,0.6-0.7,1.7l-0.2,12.6
		c0,0.4-0.1,0.6-0.3,0.6c-0.2,0-0.5-0.2-0.7-0.4c-1.3-1.2-3.8-3.8-5.9-5.9C404.1,162.7,401.9,160.3,401.4,159.9L401.4,159.9
		L401.4,159.9z M419.5,165.1c0,1.9,0,3.5-0.1,4.4c-0.1,0.6-0.2,0.9-0.6,1c-0.2,0-0.4,0.1-0.7,0.1c-0.2,0-0.3,0.1-0.3,0.2
		c0,0.1,0.1,0.2,0.4,0.2c0.8,0,2.1-0.1,2.5-0.1c0.5,0,1.8,0.1,3.1,0.1c0.2,0,0.4-0.1,0.4-0.2c0-0.1-0.1-0.2-0.3-0.2
		c-0.3,0-0.7,0-1-0.1c-0.6-0.1-0.7-0.4-0.8-1c-0.1-0.9-0.1-2.4-0.1-4.4v-3.5c0-3,0-3.6,0-4.2c0-0.7,0.2-1,0.7-1.1
		c0.2,0,0.4-0.1,0.6-0.1c0.2,0,0.3,0,0.3-0.2c0-0.1-0.2-0.2-0.4-0.2c-0.8,0-1.9,0.1-2.4,0.1c-0.6,0-1.8-0.1-2.6-0.1
		c-0.3,0-0.5,0-0.5,0.2c0,0.2,0.1,0.2,0.3,0.2c0.2,0,0.5,0,0.7,0.1c0.4,0.1,0.6,0.4,0.7,1.1c0,0.6,0,1.2,0,4.2V165.1L419.5,165.1z
		 M430.4,171.2c1.1,0,2.2-0.2,3.2-0.8c1.4-0.9,1.9-2.3,1.9-3.5c0-1.9-0.9-3.3-3.3-5.1l-0.6-0.4c-1.7-1.3-2.1-2-2.1-2.9
		c0-1.2,0.9-2.1,2.4-2.1c1.3,0,1.9,0.6,2.2,1c0.4,0.5,0.5,1.1,0.5,1.3c0,0.2,0.1,0.4,0.2,0.4c0.2,0,0.2-0.2,0.2-0.6
		c0-1.6,0.1-2.1,0.1-2.4c0-0.1-0.1-0.2-0.3-0.2c-0.5-0.1-1.4-0.3-2.7-0.3c-2.8,0-4.6,1.6-4.6,3.8c0,1.6,0.8,3,3,4.7l0.9,0.7
		c1.7,1.3,2,2.2,2,3.2c0,1.1-0.9,2.3-2.7,2.3c-1.2,0-2.4-0.5-2.9-2c-0.1-0.3-0.2-0.8-0.2-1c0-0.2,0-0.3-0.2-0.3
		c-0.2,0-0.2,0.2-0.2,0.5c0,0.3-0.1,1.5-0.1,2.6c0,0.4,0.1,0.5,0.4,0.7C428.3,171.1,429.2,171.2,430.4,171.2L430.4,171.2z
		 M445.5,165.8c0.1,0,0.2,0,0.2,0.1l1.6,4.1c0.1,0.2,0,0.4-0.2,0.5c-0.2,0-0.3,0.1-0.3,0.2c0,0.1,0.2,0.1,0.6,0.2c1.6,0,3.1,0,3.8,0
		c0.7,0,0.9,0,0.9-0.2c0-0.1-0.1-0.2-0.3-0.2c-0.2,0-0.5,0-0.8-0.1c-0.4-0.1-1-0.4-1.8-2.2c-1.3-3-4.5-11.1-5-12.2
		c-0.2-0.5-0.3-0.6-0.5-0.6c-0.2,0-0.3,0.2-0.6,0.8l-5,12.4c-0.4,1-0.8,1.7-1.7,1.8c-0.2,0-0.4,0-0.6,0c-0.2,0-0.2,0-0.2,0.2
		c0,0.2,0.1,0.2,0.4,0.2c1,0,2.1-0.1,2.4-0.1c0.6,0,1.5,0.1,2.1,0.1c0.2,0,0.3,0,0.3-0.2c0-0.1-0.1-0.2-0.3-0.2h-0.3
		c-0.6,0-0.8-0.3-0.8-0.6c0-0.2,0.1-0.7,0.3-1.2l1.1-2.7c0-0.1,0.1-0.2,0.2-0.2H445.5L445.5,165.8z M441.4,164.8
		c-0.1,0-0.1-0.1-0.1-0.1l1.8-4.9c0-0.1,0.1-0.2,0.1-0.2c0.1,0,0.1,0.1,0.1,0.2l1.8,4.9c0,0.1,0,0.1-0.1,0.1H441.4L441.4,164.8z
		 M455.6,165.1v-8.2l-3,0.1c-1.2,0-1.6,0.1-1.9,0.6c-0.2,0.3-0.3,0.5-0.3,0.7c0,0.2-0.1,0.2-0.2,0.2c-0.1,0-0.2-0.1-0.2-0.3
		c0-0.3,0.4-2.1,0.4-2.3c0.1-0.3,0.1-0.4,0.2-0.4c0.2,0,0.4,0.2,0.9,0.2c0.6,0.1,1.3,0.1,2,0.1h7.9c0.6,0,1.1-0.1,1.4-0.1
		c0.3-0.1,0.5-0.1,0.5-0.1c0.1,0,0.2,0.1,0.2,0.4c0,0.4-0.1,1.8-0.1,2.3c0,0.2-0.1,0.3-0.2,0.3c-0.2,0-0.2-0.1-0.2-0.4l0-0.2
		c0-0.5-0.6-1.1-2.4-1.1l-2.5-0.1v8.2c0,1.8,0,3.4,0.1,4.3c0.1,0.6,0.2,1,0.8,1.1c0.3,0,0.7,0.1,1,0.1c0.2,0,0.3,0.1,0.3,0.2
		c0,0.1-0.2,0.2-0.4,0.2c-1.3,0-2.6-0.1-3.1-0.1c-0.5,0-1.7,0.1-2.5,0.1c-0.3,0-0.4-0.1-0.4-0.2c0-0.1,0.1-0.2,0.3-0.2
		c0.3,0,0.5,0,0.7-0.1c0.4-0.1,0.5-0.5,0.6-1.1C455.6,168.6,455.6,167,455.6,165.1L455.6,165.1z M467.1,165.1c0,1.9,0,3.5-0.1,4.4
		c-0.1,0.6-0.2,0.9-0.6,1c-0.2,0-0.4,0.1-0.7,0.1c-0.2,0-0.3,0.1-0.3,0.2c0,0.1,0.1,0.2,0.4,0.2c0.8,0,2.1-0.1,2.5-0.1
		c0.5,0,1.8,0.1,3.1,0.1c0.2,0,0.4-0.1,0.4-0.2c0-0.1-0.1-0.2-0.3-0.2c-0.3,0-0.7,0-1-0.1c-0.6-0.1-0.7-0.4-0.8-1
		c-0.1-0.9-0.1-2.4-0.1-4.4v-3.5c0-3,0-3.6,0-4.2c0-0.7,0.2-1,0.7-1.1c0.2,0,0.4-0.1,0.6-0.1c0.2,0,0.3,0,0.3-0.2
		c0-0.1-0.2-0.2-0.4-0.2c-0.8,0-1.9,0.1-2.4,0.1c-0.6,0-1.8-0.1-2.6-0.1c-0.3,0-0.5,0-0.5,0.2c0,0.2,0.1,0.2,0.3,0.2
		c0.2,0,0.5,0,0.7,0.1c0.4,0.1,0.6,0.4,0.7,1.1c0,0.6,0,1.2,0,4.2V165.1L467.1,165.1z M481.9,171.2c5.1,0,8.3-3.6,8.3-8.2
		c0-4.6-3.1-7.5-8.1-7.5c-6,0-8.3,4.4-8.3,7.8C473.8,166.9,476.1,171.2,481.9,171.2L481.9,171.2z M482.7,170.2
		c-3.8,0-6.1-3.3-6.1-7.5c0-5,2.6-6.3,4.9-6.3c3.3,0,5.9,2.8,5.9,7.3C487.3,169.5,484.1,170.2,482.7,170.2L482.7,170.2z
		 M495.2,159.9L495.2,159.9c0.4,0.4,2.6,2.8,4.8,5c2.1,2.1,4.6,4.7,5.9,5.9c0.2,0.2,0.5,0.4,0.7,0.4c0.2,0,0.3-0.2,0.3-0.6l0.2-12.6
		c0-1.1,0.2-1.5,0.7-1.7c0.2-0.1,0.4-0.1,0.6-0.1c0.2,0,0.4-0.1,0.4-0.2c0-0.2-0.2-0.2-0.5-0.2c-1,0-1.7,0.1-2,0.1
		c-0.4,0-1.4-0.1-2.4-0.1c-0.3,0-0.5,0-0.5,0.2c0,0.1,0.1,0.2,0.3,0.2c0.3,0,0.8,0,1.1,0.1c0.5,0.2,0.7,0.6,0.7,1.8l0.2,9h-0.1
		c-0.3-0.3-3-3.2-4.4-4.6c-2.9-2.9-6-6.1-6.2-6.4c-0.3-0.4-0.5-0.6-0.7-0.6c-0.2,0-0.3,0.3-0.3,0.7l-0.2,11.8c0,1.7-0.1,2.3-0.6,2.5
		c-0.3,0.1-0.6,0.1-0.9,0.1c-0.2,0-0.3,0-0.3,0.2c0,0.2,0.2,0.2,0.4,0.2c1,0,2-0.1,2.2-0.1c0.4,0,1.2,0.1,2.5,0.1
		c0.3,0,0.5,0,0.5-0.2c0-0.1-0.1-0.2-0.3-0.2c-0.3,0-0.7,0-1-0.1c-0.4-0.1-0.7-0.7-0.7-2.2L495.2,159.9z"/>
</g>
</svg>
