<?xml version="1.0" encoding="UTF-8"?>
<!DOCTYPE svg PUBLIC "-//W3C//DTD SVG 1.1//EN" "http://www.w3.org/Graphics/SVG/1.1/DTD/svg11.dtd">
<!-- Creator: CorelDRAW X7 -->
<svg xmlns="http://www.w3.org/2000/svg" xml:space="preserve" width="180mm" height="62.516mm" version="1.1" style="shape-rendering:geometricPrecision; text-rendering:geometricPrecision; image-rendering:optimizeQuality; fill-rule:evenodd; clip-rule:evenodd"
viewBox="0 0 18000 6252"
 xmlns:xlink="http://www.w3.org/1999/xlink">
 <defs>
  <style type="text/css">
   <![CDATA[
    .fil2 {fill:none;fill-rule:nonzero}
    .fil0 {fill:#FEFEFE}
    .fil3 {fill:#FECC00;fill-rule:nonzero}
    .fil5 {fill:#E32324;fill-rule:nonzero}
    .fil4 {fill:#E31E24;fill-rule:nonzero}
    .fil1 {fill:#393185;fill-rule:nonzero}
    .fil6 {fill:#393185;fill-rule:nonzero}
   ]]>
  </style>
 </defs>
 <g id="Layer_x0020_1">
  <metadata id="CorelCorpID_0Corel-Layer"/>
  <g id="_2270843786640">
   <path class="fil0" d="M9000 855c1073,0 1943,870 1943,1942 0,1073 -870,1943 -1943,1943 -1073,0 -1943,-870 -1943,-1943 0,-1072 870,-1942 1943,-1942z"/>
   <path class="fil1" d="M9000 821l0 0 0 1c546,0 1040,221 1397,578l0 0c357,358 578,851 579,1396l0 0 0 1 0 1 0 0c0,545 -222,1039 -579,1396 -357,358 -851,579 -1396,579l0 0 -1 0 0 0 0 0c-546,0 -1040,-221 -1397,-579l0 0c-357,-357 -578,-851 -579,-1396l0 0 0 -1 0 0 0 0c0,-546 222,-1040 579,-1397 357,-357 851,-578 1396,-578l0 -1 1 0zm0 67l0 0 0 0 -1 0 0 0c-527,0 -1004,213 -1349,559 -346,345 -560,823 -560,1350l0 0 0 0 0 1 0 0c0,527 214,1004 560,1349l0 0c345,346 823,560 1350,560l0 0 0 0 1 0 0 0c527,0 1004,-214 1349,-559 346,-346 560,-823 560,-1350l0 0 0 -1 0 -1 0 0c-1,-526 -214,-1004 -560,-1349l0 0c-345,-345 -823,-559 -1350,-559z"/>
   <path class="fil1" d="M7558 1985l-49 94 34 17 46 -90c7,-13 14,-21 22,-24 8,-2 19,0 34,8l21 11c15,7 23,15 26,23 2,8 0,18 -7,32l-46 89c-7,13 -14,21 -22,24 -8,2 -19,0 -34,-7l-4 -3 9 -33 18 10 52 -102 -35 -18 -46 89c-7,14 -15,22 -22,24 -8,3 -19,1 -34,-7l-17 -9c-14,-7 -23,-15 -25,-23 -3,-8 -1,-18 6,-31l42 -82c7,-13 14,-21 21,-24 8,-3 19,-1 32,6l3 1 -7 34 -18 -9z"/>
   <polygon class="fil1" points="7745,1954 7604,1849 7703,1716 7727,1734 7651,1837 7682,1860 7727,1800 7751,1818 7706,1878 7741,1904 7818,1800 7845,1819 "/>
   <polygon class="fil1" points="7931,1729 7740,1670 7771,1640 7907,1684 7861,1550 7888,1523 7949,1711 "/>
   <path class="fil1" d="M8022 1639l-30 -196 29 -22 179 87 -34 25 -39 -19 -82 60 7 42 -30 23zm17 -100l0 0 57 -42 -71 -37 14 79z"/>
   <polygon class="fil1" points="8468,1376 8415,1208 8451,1196 8474,1267 8538,1169 8591,1152 8512,1264 8656,1316 8598,1335 8481,1291 8505,1364 "/>
   <path class="fil1" d="M8710 1306l-23 -175 26 -3 127 88c10,6 17,12 21,16l-3 -20c-1,-4 -2,-7 -2,-10l-12 -91 34 -5 23 175 -26 3 -133 -92c-6,-4 -11,-8 -16,-12 3,10 4,19 5,27l13 94 -34 5z"/>
   <path class="fil1" d="M8988 1143c1,-16 4,-27 11,-33 5,-5 16,-7 31,-7l121 6c15,1 25,4 31,10 5,7 8,18 7,34l-5 93c0,16 -4,27 -10,32 -6,6 -17,8 -32,7l-120 -6c-16,-1 -26,-4 -31,-10 -6,-6 -9,-17 -8,-34l5 -92zm33 103l0 0 125 6 6 -111 -126 -6 -5 111z"/>
   <polygon class="fil1" points="9295,1306 9276,1120 9314,1130 9326,1254 9397,1150 9423,1156 9438,1281 9504,1176 9537,1184 9434,1340 9409,1334 9394,1205 9321,1313 "/>
   <polygon class="fil1" points="9545,1378 9615,1216 9650,1232 9593,1363 9706,1412 9693,1442 "/>
   <polygon class="fil1" points="9742,1469 9835,1320 9977,1409 9961,1435 9852,1366 9831,1399 9895,1439 9879,1465 9815,1425 9792,1461 9903,1531 9885,1559 "/>
   <path class="fil1" d="M9942 1602l117 -132 79 70c21,19 33,39 36,60 3,23 -5,46 -25,68 -22,25 -48,36 -77,32 -16,-2 -36,-14 -59,-35l-71 -63zm50 0l0 0 37 33c17,16 32,25 44,27 17,3 32,-4 47,-21 25,-27 24,-53 -3,-77l-51 -45 -74 83z"/>
   <path class="fil1" d="M10346 1818l-74 -93 -87 68 73 94 31 -24 -39 -49 24 -19 61 78 -47 38c-13,10 -24,14 -32,13 -8,-1 -17,-8 -26,-20l-70 -88c-9,-12 -13,-22 -13,-30 1,-9 8,-18 21,-28l73 -57c13,-10 23,-15 32,-14 8,1 16,8 26,20l69 89c10,12 14,21 13,29 0,9 -7,18 -19,28l-3 2 -29 -25 16 -12z"/>
   <polygon class="fil1" points="10298,2005 10453,1921 10532,2068 10506,2083 10444,1969 10410,1987 10446,2054 10419,2068 10383,2002 10345,2022 10407,2138 10378,2153 "/>
   <polygon class="fil1" points="7315,2980 7489,2952 7515,3119 7485,3124 7465,2995 7426,3001 7438,3076 7408,3081 7397,3006 7354,3012 7374,3143 7341,3148 "/>
   <path class="fil1" d="M7538 3307l-31 -99 -107 33 31 99 36 -11 4 39 -20 7c-15,4 -27,5 -34,1 -7,-4 -13,-13 -18,-28l-30 -94c-4,-15 -5,-26 -1,-33 4,-8 13,-14 29,-19l88 -28c16,-5 27,-5 35,-1 7,4 13,13 17,28l30 94c5,15 5,26 1,33 -4,8 -13,14 -29,19l-15 5 -18 -35 32 -10z"/>
   <path class="fil1" d="M7559 3398c15,-7 26,-9 34,-7 8,3 15,11 22,25l54 109c7,14 10,25 7,32 -2,8 -11,16 -25,23l-83 42c-15,7 -26,9 -34,7 -8,-3 -15,-11 -22,-25l-55 -109c-6,-14 -9,-25 -6,-32 2,-8 11,-16 25,-23l83 -42zm-73 80l0 0 57 113 99 -49 -56 -114 -100 50z"/>
   <path class="fil1" d="M7573 3710l142 -104 16 22 -16 155c-1,11 -2,20 -4,26l16 -13c3,-2 5,-4 7,-6l75 -54 21 28 -143 103 -15 -21 16 -162c1,-7 2,-14 4,-20 -8,7 -16,13 -22,18l-77 56 -20 -28z"/>
   <path class="fil1" d="M7834 3833c12,-11 22,-17 30,-17 8,0 18,5 29,16l86 86c11,11 17,20 17,28 0,9 -5,19 -17,30l-65 66c-11,12 -21,18 -30,18 -8,-1 -17,-6 -28,-17l-87 -85c-11,-11 -17,-21 -17,-29 0,-8 6,-18 17,-30l65 -66zm-43 99l0 0 90 89 78 -79 -90 -89 -78 79z"/>
   <path class="fil1" d="M7947 4124l101 -144 25 18 4 131 123 -43 26 18 -101 144 -29 -20 62 -90c2,-2 6,-7 12,-14 -5,2 -11,5 -19,9l-101 37 -7 -4 0 -108c0,-8 0,-15 2,-21 -4,6 -7,12 -10,16l-62 89 -26 -18z"/>
   <polygon class="fil1" points="8197,4285 8279,4130 8313,4148 8231,4303 "/>
   <path class="fil1" d="M8488 4258l-96 -38 -41 104 97 38 13 -36 33 22 -7 20c-6,15 -13,24 -21,27 -7,4 -18,2 -33,-3l-92 -36c-14,-6 -23,-12 -26,-20 -4,-7 -3,-19 3,-34l34 -87c6,-15 13,-24 21,-27 7,-3 18,-2 32,4l92 36c15,5 24,12 27,19 3,8 2,19 -4,34l-6 16 -38 -8 12 -31z"/>
   <polygon class="fil1" points="8669,4458 8695,4284 8863,4310 8858,4339 8729,4319 8723,4358 8798,4370 8794,4399 8718,4388 8712,4431 8843,4451 8838,4484 "/>
   <path class="fil1" d="M8908 4491l-2 -176 31 0 79 105 75 -108 31 0 3 176 -36 0 -2 -108c0,-4 0,-10 1,-19 -2,4 -5,10 -9,18l-61 89 -8 0 -63 -87c-5,-6 -8,-12 -10,-18 0,8 1,14 1,19l2 109 -32 0z"/>
   <path class="fil1" d="M9206 4480l-29 -174 140 -23c25,-4 39,5 42,28l7 39c3,22 -7,35 -32,39l-102 17 11 68 -37 6zm99 -164l0 0 -85 14 7 46 85 -14c12,-2 17,-8 15,-17l-3 -18c-1,-9 -8,-13 -19,-11z"/>
   <path class="fil1" d="M9395 4310c-5,-16 -6,-27 -2,-35 4,-7 13,-13 28,-18l116 -37c15,-5 25,-6 33,-2 7,3 14,13 19,28l29 89c5,15 5,26 1,34 -4,7 -13,13 -27,18l-116 38c-15,5 -26,5 -33,2 -8,-4 -14,-14 -19,-29l-29 -88zm68 84l0 0 121 -39 -35 -106 -121 39 35 106z"/>
   <polygon class="fil1" points="9736,4327 9597,4201 9632,4182 9724,4267 9708,4142 9732,4130 9827,4213 9807,4090 9837,4074 9863,4259 9840,4271 9743,4185 9759,4314 "/>
   <polygon class="fil1" points="9964,4196 9858,4055 9993,3953 10011,3977 9906,4056 9930,4087 9991,4042 10009,4065 9948,4111 9975,4146 10080,4067 10100,4093 "/>
   <path class="fil1" d="M10154 4046l-126 -124 100 -101c17,-18 34,-18 50,-2l30 29c16,16 15,32 -2,50l-15 16 101 -8 -39 39 -94 1 -26 26 47 47 -26 27zm-16 -191l0 0 -61 61 34 34 61 -61c8,-8 9,-16 2,-22l-14 -15c-7,-6 -14,-5 -22,3z"/>
   <path class="fil1" d="M10330 3859l-143 -102 18 -25 132 -2 -43 -124 18 -25 144 102 -21 29 -89 -63c-3,-2 -8,-6 -14,-12 2,4 5,11 9,19l36 101 -5 7 -108 -1c-7,0 -14,0 -20,-2 6,4 12,7 16,10l89 63 -19 25z"/>
   <polygon class="fil1" points="10495,3612 10337,3534 10412,3382 10439,3395 10381,3513 10416,3530 10450,3462 10477,3475 10443,3543 10482,3563 10541,3444 10571,3459 "/>
   <path class="fil1" d="M10598 3393l-168 -53 8 -25 133 -80c10,-6 18,-10 24,-12l-20 -6c-3,0 -6,-1 -9,-2l-88 -28 10 -33 168 53 -8 25 -140 83c-6,4 -12,7 -18,9 11,3 20,5 27,7l91 29 -10 33z"/>
   <polygon class="fil1" points="10542,3025 10685,3048 10679,3086 10536,3063 10524,3138 10493,3133 10524,2944 10555,2950 "/>
   <path class="fil2" d="M9863 2790c0,474 -384,858 -858,858 -473,0 -857,-384 -857,-858 0,-473 384,-857 857,-857 474,0 858,384 858,857z"/>
   <path class="fil1" d="M8148 2790c0,-104 18,-204 53,-296l-476 -1 0 594 475 0c-34,-92 -52,-192 -52,-297z"/>
   <path class="fil3" d="M8651 2009l-334 -339 -422 418 334 338c86,-184 237,-333 422,-417z"/>
   <path class="fil3" d="M9005 1933c105,0 205,18 297,53l0 -476 -594 0 0 476c93,-35 193,-53 297,-53z"/>
   <path class="fil3" d="M9785 2433l337 -336 -419 -420 -337 335c185,86 334,236 419,421z"/>
   <path class="fil3" d="M9810 2494c34,92 53,192 53,296 0,105 -19,205 -53,297l476 0 0 -593 -476 0z"/>
   <path class="fil3" d="M9359 3572l334 338 423 -417 -334 -338c-87,184 -237,332 -423,417z"/>
   <path class="fil3" d="M8226 3148l-338 335 419 421 338 -335c-185,-86 -334,-236 -419,-421z"/>
   <path class="fil3" d="M9005 3648c-104,0 -204,-19 -297,-53l0 476 594 0 0 -476c-92,34 -192,53 -297,53z"/>
   <path class="fil4" d="M8619 3289c0,12 -2,22 -7,28 -5,6 -11,8 -19,8 -5,0 -10,-1 -15,-4 -4,-4 -7,-9 -9,-16 -2,-6 -2,-18 -2,-36 0,-5 0,-11 0,-18l-90 0c0,30 1,53 4,68 2,15 7,27 13,37 6,10 14,19 23,27 10,8 20,14 30,17 13,6 30,8 52,8 39,0 69,-11 90,-34 21,-23 32,-56 32,-100l0 -232 -102 0 0 247z"/>
   <polygon class="fil4" points="8772,3397 8867,3397 8867,3081 8772,3081 "/>
   <polygon class="fil4" points="8913,3164 8998,3164 8998,3397 9092,3397 9092,3164 9177,3164 9177,3081 8913,3081 "/>
   <path class="fil4" d="M9497 3149c-13,-24 -32,-43 -56,-56 -25,-13 -52,-20 -82,-20 -15,0 -30,2 -44,6 -14,4 -27,9 -39,16 -12,7 -24,17 -35,30 -11,13 -20,30 -26,49 -7,19 -10,40 -10,64 0,51 14,91 42,122 29,30 67,45 114,45 34,0 63,-8 86,-23 24,-16 41,-36 52,-62 12,-25 18,-53 18,-85 0,-32 -7,-61 -20,-86zm-85 140l0 0c-5,14 -12,23 -22,29 -9,6 -19,9 -30,9 -17,0 -30,-6 -40,-19 -13,-17 -19,-40 -19,-69 0,-20 3,-37 8,-50 6,-13 13,-23 23,-30 9,-6 19,-9 30,-9 10,0 18,2 26,7 7,4 13,10 18,17 4,7 8,16 11,27 2,11 4,24 4,38 0,19 -3,36 -9,50z"/>
   <polygon class="fil5" points="9242,2550 9242,2486 8989,2486 8989,2674 8865,2674 8865,2486 8801,2486 8801,2738 8989,2738 8989,2862 8801,2862 8801,2927 9053,2927 9053,2738 9177,2738 9177,2927 9242,2927 9242,2674 9053,2674 9053,2550 "/>
   <path class="fil5" d="M9079 2343c0,33 -27,60 -61,60 -33,0 -60,-27 -60,-60 0,-34 27,-61 60,-61 34,0 61,27 61,61z"/>
   <path class="fil5" d="M9071 2067c0,29 -24,52 -53,52 -29,0 -52,-23 -52,-52 0,-29 23,-52 52,-52 29,0 53,23 53,52z"/>
   <path class="fil5" d="M9240 2343c0,33 -27,60 -60,60 -34,0 -61,-27 -61,-60 0,-34 27,-61 61,-61 33,0 60,27 60,61z"/>
   <path class="fil5" d="M8918 2343c0,33 -27,60 -61,60 -33,0 -61,-27 -61,-60 0,-34 28,-61 61,-61 34,0 61,27 61,61z"/>
   <path class="fil5" d="M9221 2067c-12,12 -82,90 -192,90 -109,0 -176,-69 -199,-90 0,0 -14,-12 -22,-8 -8,4 -10,33 20,78 29,45 96,118 199,118 104,0 188,-92 207,-145 20,-53 -2,-55 -13,-43zm-194 162l0 0c-105,-2 -164,-88 -170,-102 0,0 155,122 334,4 0,0 -58,100 -164,98z"/>
   <polygon class="fil5" points="8300,1349 8280,1406 8222,1386 8242,1329 "/>
   <path class="fil3" d="M7026 574l0 -393 57 36 0 393 -57 -36zm143 0l0 -393 57 36 0 393 -57 -36zm253 -357l277 0 0 43 -50 0 0 314 -57 -36 0 -75c-8,9 -17,16 -27,21 -11,5 -22,8 -34,8 -17,0 -36,-13 -57,-39 -21,-27 -32,-50 -32,-72 0,-17 7,-33 21,-45 14,-13 31,-19 51,-19 15,0 29,4 43,14 15,9 26,21 35,36l0 -107 -170 0 0 -43zm52 211c5,3 10,6 17,7 6,2 14,3 23,3 15,0 29,-4 43,-11 14,-8 26,-18 35,-32 -8,-9 -16,-16 -26,-21 -10,-5 -21,-7 -31,-7 -18,0 -32,6 -45,18 -12,12 -17,26 -16,43zm104 -336l43 -43 42 43 -42 43 -43 -43zm110 125l252 0 0 43 -51 0 0 93 -79 0c-19,0 -36,7 -50,21 -14,14 -21,30 -21,50 0,16 7,29 21,40 14,11 31,17 50,17 -2,-3 -4,-7 -5,-11 -1,-5 -2,-11 -2,-17 0,-14 5,-26 15,-36 10,-10 21,-14 35,-14 14,0 26,6 36,19 9,12 14,27 14,45 0,13 -2,24 -8,34 -5,9 -12,16 -20,19l25 25c8,10 13,21 15,33 2,12 1,22 -5,32l-46 -22c4,-2 8,-6 10,-10 3,-4 4,-8 4,-13 0,-3 0,-6 -2,-9 -1,-3 -3,-5 -5,-7l-21 -25c-35,0 -66,-15 -96,-45 -29,-30 -43,-63 -43,-98 0,-22 7,-40 22,-55 16,-16 34,-23 56,-23l43 0 0 -43 -144 0 0 -43zm-41 -150c5,-9 14,-16 25,-21 11,-5 25,-7 39,-7 10,0 21,5 35,15 14,10 29,24 44,42l78 114 -14 7 -71 -93c-8,-9 -16,-16 -25,-21 -9,-5 -19,-7 -29,-7 -5,0 -10,1 -16,4 -6,3 -13,8 -20,14l-46 -47zm539 211c0,8 3,15 9,23 7,7 16,12 27,16 11,-10 20,-19 26,-29 6,-10 9,-20 9,-28 0,-6 -3,-11 -10,-15 -7,-4 -16,-7 -25,-7 -10,0 -19,4 -26,12 -7,7 -10,17 -10,28zm-86 142c46,-32 81,-62 104,-89 -21,-7 -37,-19 -50,-34 -12,-15 -18,-31 -18,-48 0,-15 5,-27 17,-38 11,-10 24,-15 40,-15 19,0 40,12 64,35 24,24 36,46 36,65 0,8 -2,16 -5,25 -4,8 -9,16 -17,25l61 28 32 -21 0 -93 -35 0 -29 -43 171 0 0 43 -50 0 0 314 -57 -36 0 -128 -142 121 -50 -29 146 -114 -61 -28c-62,52 -95,79 -100,82l-57 -22zm247 -303c0,-19 7,-36 20,-50 13,-14 29,-21 48,-21 27,0 53,16 77,48 23,33 39,74 48,123l71 0 0 43 -50 0 0 314 -57 -36 0 -278 -47 0 0 -43 65 0c-6,-34 -18,-62 -36,-85 -19,-22 -39,-33 -60,-33 -12,0 -22,5 -31,14 -8,9 -12,20 -12,33 0,12 2,24 7,36 5,12 12,22 21,31l-20 0c-14,-12 -25,-27 -32,-43 -8,-17 -12,-35 -12,-53zm410 100l378 0 0 43 -157 0 0 114 28 -14c0,-12 4,-22 10,-31 6,-8 14,-12 23,-12 13,0 25,4 35,12 10,9 15,19 15,31 0,8 -3,16 -9,23 -6,7 -14,13 -24,16 18,14 31,30 40,47 9,18 14,35 14,53 0,16 -5,30 -15,42 -10,13 -23,21 -39,26l-39 -57 32 0c9,0 17,-3 23,-8 6,-5 9,-11 9,-17 0,-12 -4,-24 -14,-38 -9,-14 -22,-28 -39,-41l-50 18 0 150 -57 -36 0 -89 -86 39 -43 -28 129 -61c-11,-12 -22,-22 -34,-29 -12,-7 -23,-10 -34,-10 -10,0 -19,1 -28,3 -9,3 -17,6 -25,11l-29 -50c8,-5 18,-8 29,-11 12,-2 24,-3 39,-3 16,0 31,7 46,21 15,15 27,34 36,57l0 -128 -164 0 0 -43zm268 357l0 -1 1 0 0 1 -1 0zm96 -357l297 0 0 43 -50 0 0 314 -57 -36 0 -93c-6,7 -13,12 -23,16 -10,4 -22,6 -34,6 -20,0 -43,-13 -69,-38 -25,-26 -38,-49 -38,-69l0 -100 -26 0 0 -43zm83 207l22 0c13,0 26,-2 39,-8 12,-4 23,-12 32,-21l-93 -114 0 143zm14 -164l93 114 0 -114 -93 0zm193 -29c6,-4 13,-8 22,-10 8,-3 18,-4 28,-4 18,0 38,11 60,33 22,22 33,42 33,60l0 64 64 0 0 -114 -36 0 -28 -43 171 0 0 43 -50 0 0 314 -57 -36 0 -114 -64 0 0 32c0,9 -3,17 -8,23 -6,6 -13,9 -21,9 -12,0 -29,-11 -50,-33 -21,-22 -32,-40 -32,-52 0,-8 3,-15 8,-21 5,-5 10,-8 17,-8l29 0 0 -100c0,-6 -2,-11 -7,-15 -4,-4 -9,-6 -15,-6 -5,0 -10,2 -15,8 -6,5 -10,12 -13,20l-36 -50zm193 -139l43 -43 42 43 -42 43 -43 -43zm271 125l277 0 0 43 -50 0 0 314 -57 -36 0 -75c-8,9 -17,16 -28,21 -10,5 -22,8 -33,8 -17,0 -36,-13 -57,-39 -22,-27 -32,-50 -32,-72 0,-17 7,-33 21,-45 14,-13 31,-19 50,-19 15,0 30,4 44,14 14,9 26,21 35,36l0 -107 -170 0 0 -43zm52 211c4,3 10,6 16,7 7,2 15,3 23,3 15,0 30,-4 44,-11 14,-8 25,-18 35,-32 -8,-9 -17,-16 -27,-21 -10,-5 -20,-7 -30,-7 -18,0 -33,6 -45,18 -12,12 -17,26 -16,43zm101 -311c0,-19 6,-36 20,-50 13,-14 29,-21 47,-21 28,0 54,16 77,48 24,33 40,74 48,123l72 0 0 43 -50 0 0 314 -57 -36 0 -278 -47 0 0 -43 64 0c-6,-34 -18,-62 -36,-85 -18,-22 -38,-33 -60,-33 -12,0 -22,5 -30,14 -9,9 -13,20 -13,33 0,12 3,24 8,36 5,12 12,22 21,31l-21 0c-14,-12 -24,-27 -32,-43 -8,-17 -11,-35 -11,-53zm249 100l207 0 0 43 -94 0c9,11 16,24 21,38 5,15 8,31 8,48 0,17 -5,33 -15,48 -9,15 -22,28 -39,37 1,5 4,12 8,19 4,7 10,15 17,24l82 93 -21 14 -132 -157c-8,-10 -15,-19 -19,-28 -4,-9 -6,-18 -6,-26 0,-6 2,-12 7,-17 5,-5 11,-7 18,-7 6,0 11,2 16,7 4,4 7,10 9,17 10,-5 18,-14 23,-25 6,-12 9,-24 9,-39 0,-9 -1,-17 -3,-25 -2,-8 -5,-15 -8,-21l-88 0 0 -43zm85 -125l43 -43 43 43 -43 43 -43 -43zm279 482l0 -1 0 0 0 1 0 0zm132 0l0 -393 57 36 0 393 -57 -36zm142 0l0 -393 57 36 0 393 -57 -36z"/>
  </g>
  <g id="_2270843785904">
   <path class="fil6" d="M152 5904c0,139 1,209 -53,264 -14,14 -25,22 -34,27 -12,6 -15,9 -15,12 0,4 2,6 5,6 4,0 9,-2 14,-4 15,-7 27,-13 36,-19 68,-41 105,-90 120,-133 14,-40 17,-85 17,-125 0,-36 -2,-69 -2,-100l0 -130c0,-108 0,-128 1,-150 1,-25 7,-37 26,-40 9,-2 13,-3 21,-3 8,0 12,-1 12,-6 0,-5 -5,-6 -14,-6 -28,0 -72,2 -89,2 -19,0 -63,-2 -101,-2 -10,0 -15,1 -15,6 0,5 4,6 12,6 10,0 22,1 27,3 24,4 29,16 31,40 1,22 1,42 1,150l0 202zm480 -53c3,0 5,1 7,5l56 145c4,8 -1,15 -6,16 -7,1 -10,2 -10,7 0,5 8,5 21,5 57,2 108,2 134,2 26,0 32,-2 32,-7 0,-5 -3,-6 -9,-6 -9,0 -19,-1 -30,-3 -15,-3 -35,-13 -62,-77 -45,-107 -158,-390 -175,-429 -7,-16 -11,-22 -18,-22 -7,0 -11,8 -19,28l-178 438c-14,35 -27,59 -60,64 -5,0 -15,1 -22,1 -5,0 -8,1 -8,6 0,5 4,7 13,7 37,0 76,-2 84,-2 22,0 52,2 74,2 8,0 12,-2 12,-7 0,-5 -2,-6 -10,-6l-11 0c-22,0 -28,-9 -28,-22 0,-8 4,-25 11,-43l38 -97c1,-4 3,-5 6,-5l158 0zm-144 -36c-3,0 -3,-2 -3,-5l65 -173c1,-3 3,-6 5,-6 2,0 2,3 3,6l64 174c0,2 0,4 -4,4l-130 0zm452 11c0,68 0,124 -3,154 -2,20 -7,32 -21,35 -6,2 -15,3 -25,3 -9,0 -11,2 -11,6 0,5 5,7 14,7 28,0 72,-2 89,-2 19,0 63,2 110,2 8,0 13,-2 13,-7 0,-4 -3,-6 -11,-6 -11,0 -26,-1 -36,-3 -21,-3 -26,-15 -28,-34 -3,-31 -3,-87 -3,-155l0 -124c0,-108 0,-128 1,-150 2,-25 7,-37 26,-40 9,-2 15,-3 22,-3 7,0 11,-1 11,-7 0,-4 -6,-5 -15,-5 -27,0 -68,2 -86,2 -21,0 -65,-2 -92,-2 -11,0 -17,1 -17,5 0,6 4,7 11,7 9,0 18,1 26,3 15,4 22,16 24,40 1,22 1,42 1,150l0 124zm352 -186l2 0c12,14 91,100 168,176 73,73 164,165 208,208 8,7 16,15 24,15 6,0 9,-6 9,-22l8 -445c1,-40 6,-55 26,-60 8,-3 14,-3 21,-3 9,0 13,-2 13,-6 0,-6 -7,-6 -16,-6 -35,0 -62,2 -70,2 -14,0 -48,-2 -85,-2 -10,0 -18,0 -18,6 0,4 3,6 11,6 10,0 27,0 37,5 17,7 24,20 24,63l7 317 -3 0c-12,-11 -107,-113 -155,-161 -103,-102 -211,-215 -219,-224 -12,-13 -19,-22 -26,-22 -8,0 -10,10 -10,24l-6 416c-1,61 -4,82 -22,87 -10,3 -22,4 -32,4 -7,0 -11,1 -11,6 0,6 6,7 16,7 36,0 69,-2 76,-2 13,0 42,2 88,2 9,0 16,-2 16,-7 0,-5 -4,-6 -12,-6 -12,0 -25,-1 -37,-5 -14,-5 -23,-23 -25,-78l-7 -295zm848 186c0,68 0,124 -3,154 -2,20 -7,32 -21,35 -6,2 -15,3 -25,3 -9,0 -11,2 -11,6 0,5 5,7 14,7 28,0 72,-2 89,-2 19,0 63,2 110,2 8,0 13,-2 13,-7 0,-4 -3,-6 -11,-6 -11,0 -26,-1 -36,-3 -21,-3 -26,-15 -28,-34 -3,-31 -3,-87 -3,-155l0 -124c0,-108 0,-128 1,-150 2,-25 7,-37 26,-40 9,-2 15,-3 22,-3 7,0 11,-1 11,-7 0,-4 -6,-5 -15,-5 -27,0 -68,2 -86,2 -21,0 -65,-2 -92,-2 -11,0 -17,1 -17,5 0,6 4,7 11,7 9,0 18,1 26,3 15,4 22,16 24,40 1,22 1,42 1,150l0 124zm352 -186l2 0c12,14 91,100 168,176 73,73 164,165 208,208 8,7 16,15 24,15 6,0 9,-6 9,-22l8 -445c1,-40 6,-55 26,-60 9,-3 14,-3 21,-3 9,0 13,-2 13,-6 0,-6 -7,-6 -16,-6 -35,0 -62,2 -70,2 -14,0 -48,-2 -85,-2 -10,0 -18,0 -18,6 0,4 3,6 11,6 10,0 27,0 37,5 17,7 24,20 24,63l7 317 -3 0c-12,-11 -107,-113 -155,-161 -103,-102 -211,-215 -219,-224 -12,-13 -19,-22 -26,-22 -7,0 -10,10 -10,24l-6 416c-1,61 -4,82 -22,87 -10,3 -22,4 -32,4 -7,0 -11,1 -11,6 0,6 6,7 16,7 36,0 70,-2 76,-2 13,0 42,2 88,2 9,0 16,-2 16,-7 0,-5 -4,-6 -12,-6 -11,0 -25,-1 -37,-5 -14,-5 -23,-23 -25,-78l-7 -295zm730 186c0,65 0,121 -3,150 -2,21 -6,36 -21,39 -6,2 -14,3 -25,3 -9,0 -11,2 -11,6 0,5 5,7 14,7 28,0 73,-2 89,-2 20,0 64,2 111,2 7,0 13,-2 13,-7 0,-4 -3,-6 -11,-6 -11,0 -26,-1 -36,-3 -21,-3 -26,-18 -28,-38 -3,-30 -3,-86 -3,-151l0 -290 89 2c63,2 82,22 83,40l1 8c0,10 2,14 7,14 5,0 6,-4 7,-11 0,-19 2,-68 2,-82 0,-11 -1,-15 -6,-15 -3,0 -8,1 -19,3 -10,2 -26,4 -48,4l-280 0c-23,0 -50,-2 -71,-4 -17,-1 -25,-8 -30,-8 -4,0 -7,4 -9,13 -1,6 -14,70 -14,81 0,8 1,12 6,12 4,0 6,-3 8,-9 1,-5 5,-14 12,-24 10,-16 27,-19 68,-21l105 -3 0 290zm408 0c0,65 0,121 -4,150 -2,21 -6,36 -20,39 -6,2 -15,3 -26,3 -8,0 -11,2 -11,6 0,5 5,7 14,7 14,0 33,-2 49,-2 17,0 33,0 40,0 21,0 43,0 74,2 30,0 69,2 122,2 27,0 33,0 38,-19 4,-14 9,-62 9,-78 0,-7 0,-13 -5,-13 -5,0 -7,3 -8,11 -5,29 -14,44 -32,52 -18,9 -48,9 -66,9 -72,0 -84,-11 -85,-60 -1,-20 0,-85 0,-109l0 -56c0,-4 1,-7 4,-7 17,0 87,1 100,2 27,3 36,14 40,28 2,9 2,18 3,25 0,4 1,6 6,6 7,0 7,-7 7,-13 0,-5 2,-33 2,-47 3,-36 6,-48 6,-52 0,-4 -2,-6 -5,-6 -3,0 -6,4 -11,10 -7,7 -17,9 -34,10 -16,2 -98,2 -113,2 -4,0 -5,-3 -5,-8l0 -179c0,-5 1,-7 5,-7 14,0 88,2 100,3 35,4 43,13 47,25 4,9 5,21 5,26 0,6 1,10 6,10 5,0 6,-5 7,-8 2,-9 3,-40 4,-47 2,-32 5,-41 5,-46 0,-3 0,-6 -4,-6 -3,0 -8,2 -11,3 -6,1 -17,3 -31,4 -13,1 -154,1 -176,1 -10,0 -26,-1 -45,-2 -17,0 -38,0 -57,0 -10,0 -15,1 -15,6 0,5 4,6 12,6 9,0 21,1 27,3 23,4 29,16 31,40 1,22 1,42 1,150l0 124zm446 0c0,65 0,121 -3,150 -3,21 -7,36 -21,39 -6,2 -15,3 -25,3 -9,0 -11,2 -11,6 0,5 5,7 14,7 28,0 72,-2 86,-2 10,0 63,2 104,2 9,0 14,-2 14,-7 0,-4 -3,-6 -9,-6 -8,0 -24,-1 -34,-3 -21,-3 -26,-18 -28,-39 -3,-29 -3,-85 -3,-151l0 -10c0,-4 2,-5 5,-5l62 1c5,0 9,1 12,5 10,11 42,59 70,97 40,55 67,88 97,104 19,10 36,14 76,14l67 0c8,0 13,-2 13,-7 0,-4 -3,-6 -8,-6 -6,0 -12,-1 -20,-2 -11,-2 -40,-7 -79,-48 -42,-44 -91,-107 -153,-186 71,-58 93,-106 93,-158 0,-47 -28,-83 -48,-97 -38,-26 -86,-30 -130,-30 -22,0 -76,2 -100,2 -15,0 -59,-2 -96,-2 -11,0 -16,1 -16,6 0,5 4,6 12,6 10,0 22,1 28,3 23,4 28,16 30,40 1,22 1,42 1,150l0 124zm84 -283c0,-6 1,-9 6,-10 7,-2 20,-3 37,-3 42,0 109,29 109,129 0,58 -21,91 -42,106 -13,9 -22,12 -50,12 -18,0 -39,-2 -54,-7 -5,-2 -6,-5 -6,-13l0 -214zm482 97l2 0c12,14 91,100 168,176 73,73 164,165 208,208 8,7 16,15 24,15 6,0 9,-6 9,-22l8 -445c1,-40 6,-55 26,-60 9,-3 14,-3 21,-3 9,0 13,-2 13,-6 0,-6 -7,-6 -16,-6 -35,0 -62,2 -70,2 -14,0 -48,-2 -85,-2 -10,0 -18,0 -18,6 0,4 3,6 11,6 10,0 27,0 37,5 17,7 24,20 24,63l7 317 -3 0c-12,-11 -107,-113 -155,-161 -103,-102 -211,-215 -219,-224 -12,-13 -19,-22 -26,-22 -7,0 -10,10 -10,24l-6 416c-1,61 -3,82 -22,87 -10,3 -22,4 -32,4 -7,0 -11,1 -11,6 0,6 6,7 16,7 36,0 70,-2 76,-2 13,0 42,2 88,2 9,0 16,-2 16,-7 0,-5 -4,-6 -12,-6 -11,0 -25,-1 -37,-5 -14,-5 -23,-23 -25,-78l-7 -295zm822 211c4,0 6,1 7,5l57 145c3,8 -2,15 -7,16 -7,1 -9,2 -9,7 0,5 8,5 21,5 56,2 108,2 133,2 26,0 33,-2 33,-7 0,-5 -4,-6 -9,-6 -9,0 -20,-1 -30,-3 -15,-3 -35,-13 -62,-77 -45,-107 -159,-390 -175,-429 -8,-16 -12,-22 -18,-22 -7,0 -11,8 -20,28l-177 438c-14,35 -28,59 -60,64 -6,0 -16,1 -22,1 -6,0 -9,1 -9,6 0,5 5,7 14,7 37,0 75,-2 83,-2 22,0 52,2 75,2 8,0 12,-2 12,-7 0,-5 -2,-6 -11,-6l-10 0c-22,0 -28,-9 -28,-22 0,-8 3,-25 10,-43l38 -97c2,-4 3,-5 7,-5l157 0zm-143 -36c-3,0 -4,-2 -3,-5l65 -173c1,-3 2,-6 4,-6 2,0 3,3 4,6l63 174c1,2 0,4 -3,4l-130 0zm500 11c0,65 0,121 -4,150 -2,21 -6,36 -20,39 -6,2 -15,3 -26,3 -8,0 -11,2 -11,6 0,5 5,7 14,7 29,0 73,-2 89,-2 20,0 65,2 111,2 8,0 14,-2 14,-7 0,-4 -4,-6 -12,-6 -10,0 -26,-1 -36,-3 -21,-3 -25,-18 -27,-38 -4,-30 -4,-86 -4,-151l0 -290 89 2c63,2 82,22 84,40l0 8c1,10 2,14 8,14 4,0 6,-4 6,-11 0,-19 2,-68 2,-82 0,-11 0,-15 -5,-15 -3,0 -9,1 -19,3 -11,2 -26,4 -49,4l-280 0c-23,0 -50,-2 -70,-4 -18,-1 -25,-8 -31,-8 -4,0 -6,4 -8,13 -2,6 -15,70 -15,81 0,8 1,12 6,12 5,0 7,-3 8,-9 2,-5 5,-14 12,-24 11,-16 28,-19 69,-21l105 -3 0 290zm407 0c0,68 0,124 -3,154 -2,20 -6,32 -21,35 -6,2 -14,3 -25,3 -8,0 -11,2 -11,6 0,5 5,7 14,7 28,0 73,-2 89,-2 19,0 63,2 110,2 8,0 13,-2 13,-7 0,-4 -3,-6 -11,-6 -10,0 -26,-1 -36,-3 -21,-3 -26,-15 -28,-34 -3,-31 -3,-87 -3,-155l0 -124c0,-108 0,-128 1,-150 2,-25 8,-37 27,-40 8,-2 14,-3 21,-3 7,0 11,-1 11,-7 0,-4 -6,-5 -15,-5 -27,0 -68,2 -86,2 -20,0 -65,-2 -92,-2 -11,0 -17,1 -17,5 0,6 5,7 12,7 8,0 17,1 25,3 16,4 23,16 24,40 1,22 1,42 1,150l0 124zm520 215c180,0 293,-128 293,-290 0,-162 -110,-264 -286,-264 -212,0 -291,156 -291,277 0,125 82,277 284,277zm30 -36c-136,0 -217,-116 -217,-263 0,-176 93,-221 174,-221 116,0 207,98 207,256 0,204 -115,228 -164,228zm442 -365l2 0c13,14 92,100 168,176 74,73 164,165 209,208 7,7 16,15 24,15 6,0 9,-6 9,-22l8 -445c0,-40 6,-55 26,-60 8,-3 14,-3 21,-3 8,0 13,-2 13,-6 0,-6 -7,-6 -17,-6 -34,0 -61,2 -69,2 -15,0 -49,-2 -85,-2 -11,0 -18,0 -18,6 0,4 2,6 11,6 10,0 27,0 37,5 17,7 23,20 24,63l7 317 -3 0c-12,-11 -108,-113 -156,-161 -103,-102 -210,-215 -218,-224 -13,-13 -19,-22 -27,-22 -7,0 -9,10 -9,24l-6 416c-1,61 -4,82 -22,87 -10,3 -23,4 -32,4 -7,0 -11,1 -11,6 0,6 6,7 15,7 37,0 70,-2 77,-2 13,0 41,2 87,2 10,0 17,-2 17,-7 0,-5 -5,-6 -12,-6 -12,0 -25,-1 -37,-5 -14,-5 -23,-23 -25,-78l-8 -295zm823 211c4,0 6,1 7,5l57 145c3,8 -2,15 -7,16 -7,1 -10,2 -10,7 0,5 9,5 21,5 57,2 109,2 134,2 26,0 32,-2 32,-7 0,-5 -3,-6 -9,-6 -8,0 -19,-1 -29,-3 -15,-3 -36,-13 -63,-77 -45,-107 -158,-390 -175,-429 -7,-16 -11,-22 -17,-22 -7,0 -12,8 -20,28l-177 438c-15,35 -28,59 -60,64 -6,0 -16,1 -22,1 -6,0 -9,1 -9,6 0,5 4,7 14,7 36,0 75,-2 83,-2 22,0 52,2 75,2 8,0 12,-2 12,-7 0,-5 -2,-6 -11,-6l-10 0c-22,0 -29,-9 -29,-22 0,-8 4,-25 11,-43l38 -97c2,-4 3,-5 6,-5l158 0zm-143 -36c-3,0 -4,-2 -3,-5l65 -173c0,-3 2,-6 4,-6 2,0 3,3 4,6l63 174c1,2 0,4 -3,4l-130 0zm540 -113c0,-108 0,-128 1,-150 2,-25 7,-37 26,-40 9,-2 20,-3 28,-3 8,0 13,-1 13,-6 0,-5 -5,-6 -15,-6 -28,0 -79,2 -96,2 -19,0 -64,-2 -97,-2 -11,0 -15,1 -15,6 0,5 4,6 12,6 9,0 17,1 23,3 23,4 29,16 30,40 2,22 2,42 2,150l0 124c0,65 0,121 -4,150 -3,21 -6,36 -20,39 -7,2 -15,3 -26,3 -8,0 -11,2 -11,6 0,5 5,7 14,7 14,0 33,-2 49,-2 17,0 32,0 40,0 29,0 54,0 86,2 32,0 69,2 120,2 36,0 40,-4 44,-19 6,-21 11,-74 11,-81 0,-9 -1,-13 -6,-13 -6,0 -7,5 -8,11 -1,14 -10,33 -18,42 -18,20 -45,20 -83,20 -55,0 -73,-5 -85,-15 -15,-13 -15,-62 -15,-152l0 -124zm645 124c0,65 0,121 -4,150 -2,21 -6,36 -20,39 -7,2 -15,3 -26,3 -8,0 -11,2 -11,6 0,5 5,7 14,7 28,0 73,-2 89,-2 20,0 64,2 111,2 8,0 13,-2 13,-7 0,-4 -3,-6 -11,-6 -10,0 -26,-1 -36,-3 -21,-3 -25,-18 -27,-38 -4,-30 -4,-86 -4,-151l0 -290 89 2c63,2 82,22 83,40l1 8c1,10 2,14 8,14 4,0 6,-4 6,-11 0,-19 2,-68 2,-82 0,-11 0,-15 -5,-15 -3,0 -9,1 -19,3 -11,2 -26,4 -49,4l-280 0c-23,0 -50,-2 -70,-4 -18,-1 -25,-8 -31,-8 -4,0 -6,4 -8,13 -2,6 -15,70 -15,81 0,8 1,12 6,12 4,0 7,-3 8,-9 1,-5 5,-14 12,-24 11,-16 28,-19 69,-21l105 -3 0 290z"/>
   <path class="fil6" d="M9492 5826c0,65 0,121 -3,150 -3,21 -7,36 -21,39 -6,2 -15,3 -25,3 -9,0 -11,2 -11,6 0,5 5,7 14,7 28,0 72,-2 86,-2 10,0 63,2 104,2 9,0 14,-2 14,-7 0,-4 -3,-6 -9,-6 -8,0 -24,-1 -34,-3 -21,-3 -26,-18 -28,-39 -3,-29 -3,-85 -3,-151l0 -10c0,-4 2,-5 5,-5l62 1c5,0 9,1 12,5 10,11 42,59 70,97 40,55 67,88 97,104 19,10 36,14 76,14l67 0c8,0 13,-2 13,-7 0,-4 -3,-6 -8,-6 -6,0 -12,-1 -20,-2 -11,-2 -40,-7 -79,-48 -42,-44 -91,-107 -153,-186 71,-58 93,-106 93,-158 0,-47 -28,-83 -48,-97 -38,-26 -86,-30 -130,-30 -22,0 -76,2 -100,2 -15,0 -59,-2 -96,-2 -11,0 -16,1 -16,6 0,5 4,6 12,6 10,0 22,1 28,3 23,4 28,16 30,40 1,22 1,42 1,150l0 124zm84 -283c0,-6 1,-9 6,-10 7,-2 20,-3 37,-3 42,0 109,29 109,129 0,58 -21,91 -42,106 -13,9 -22,12 -50,12 -18,0 -39,-2 -54,-7 -5,-2 -6,-5 -6,-13l0 -214zm635 308c4,0 6,1 7,5l57 145c3,8 -2,15 -6,16 -8,1 -10,2 -10,7 0,5 8,5 21,5 56,2 108,2 133,2 26,0 33,-2 33,-7 0,-5 -4,-6 -9,-6 -9,0 -19,-1 -30,-3 -15,-3 -35,-13 -62,-77 -45,-107 -158,-390 -175,-429 -7,-16 -12,-22 -18,-22 -7,0 -11,8 -20,28l-177 438c-14,35 -28,59 -60,64 -6,0 -16,1 -22,1 -6,0 -8,1 -8,6 0,5 4,7 13,7 37,0 76,-2 83,-2 22,0 53,2 75,2 8,0 12,-2 12,-7 0,-5 -2,-6 -10,-6l-11 0c-22,0 -28,-9 -28,-22 0,-8 3,-25 10,-43l38 -97c2,-4 3,-5 7,-5l157 0zm-143 -36c-3,0 -4,-2 -3,-5l65 -173c1,-3 2,-6 4,-6 2,0 3,3 4,6l63 174c1,2 0,4 -3,4l-130 0zm452 11c0,65 0,121 -4,150 -2,21 -6,36 -20,39 -6,2 -15,3 -25,3 -9,0 -12,2 -12,6 0,5 5,7 14,7 15,0 33,-2 49,-2 17,0 33,0 40,0 18,0 43,2 70,4 26,2 55,4 81,4 130,0 204,-50 236,-83 40,-41 77,-108 77,-197 0,-84 -33,-143 -68,-180 -77,-80 -195,-80 -283,-80 -43,0 -87,2 -109,2 -20,0 -64,-2 -102,-2 -10,0 -15,1 -15,6 0,5 4,6 12,6 10,0 22,1 27,3 24,4 29,16 31,40 1,22 1,42 1,150l0 124zm88 -136c0,-56 0,-117 1,-141 0,-8 2,-11 8,-14 6,-3 32,-5 46,-5 55,0 136,8 201,71 30,28 68,86 68,176 0,73 -14,137 -60,176 -42,37 -90,51 -162,51 -56,0 -83,-15 -93,-28 -5,-8 -7,-36 -7,-54 -1,-14 -2,-68 -2,-143l0 -89zm566 136c0,65 0,121 -3,150 -3,21 -7,36 -21,39 -6,2 -15,3 -25,3 -9,0 -12,2 -12,6 0,5 5,7 14,7 15,0 33,-2 49,-2 17,0 33,0 40,0 22,0 44,0 74,2 30,0 69,2 122,2 27,0 33,0 38,-19 4,-14 9,-62 9,-78 0,-7 0,-13 -5,-13 -5,0 -7,3 -8,11 -5,29 -13,44 -32,52 -18,9 -48,9 -66,9 -72,0 -84,-11 -85,-60 -1,-20 0,-85 0,-109l0 -56c0,-4 1,-7 4,-7 17,0 87,1 101,2 26,3 36,14 39,28 2,9 2,18 3,25 0,4 1,6 6,6 7,0 7,-7 7,-13 0,-5 2,-33 2,-47 3,-36 6,-48 6,-52 0,-4 -2,-6 -5,-6 -3,0 -6,4 -11,10 -6,7 -17,9 -34,10 -16,2 -97,2 -113,2 -4,0 -5,-3 -5,-8l0 -179c0,-5 1,-7 5,-7 14,0 88,2 100,3 36,4 43,13 48,25 3,9 4,21 4,26 0,6 1,10 6,10 5,0 7,-5 7,-8 2,-9 3,-40 4,-47 2,-32 5,-41 5,-46 0,-3 0,-6 -4,-6 -3,0 -8,2 -11,3 -6,1 -17,3 -30,4 -14,1 -154,1 -177,1 -10,0 -26,-1 -45,-2 -17,0 -38,0 -57,0 -10,0 -15,1 -15,6 0,5 4,6 12,6 10,0 22,1 27,3 24,4 29,16 31,40 1,22 1,42 1,150l0 124zm866 215c179,0 292,-128 292,-290 0,-162 -109,-264 -285,-264 -212,0 -292,156 -292,277 0,125 82,277 285,277zm30 -36c-136,0 -217,-116 -217,-263 0,-176 92,-221 174,-221 115,0 207,98 207,256 0,204 -115,228 -164,228zm410 -179c0,65 0,121 -4,150 -2,21 -6,36 -20,39 -6,2 -15,3 -25,3 -9,0 -12,2 -12,6 0,5 5,7 14,7 29,0 73,-2 87,-2 10,0 62,2 103,2 10,0 15,-2 15,-7 0,-4 -3,-6 -9,-6 -8,0 -24,-1 -35,-3 -21,-3 -25,-18 -27,-39 -4,-29 -4,-85 -4,-151l0 -10c0,-4 2,-5 6,-5l61 1c5,0 10,1 13,5 9,11 42,59 70,97 40,55 66,88 97,104 18,10 36,14 75,14l68 0c8,0 13,-2 13,-7 0,-4 -3,-6 -9,-6 -5,0 -12,-1 -19,-2 -11,-2 -40,-7 -79,-48 -42,-44 -91,-107 -154,-186 72,-58 94,-106 94,-158 0,-47 -29,-83 -48,-97 -39,-26 -86,-30 -130,-30 -22,0 -76,2 -100,2 -15,0 -59,-2 -97,-2 -10,0 -15,1 -15,6 0,5 4,6 12,6 10,0 22,1 27,3 24,4 29,16 31,40 1,22 1,42 1,150l0 124zm83 -283c0,-6 2,-9 7,-10 7,-2 19,-3 37,-3 42,0 108,29 108,129 0,58 -20,91 -41,106 -13,9 -22,12 -51,12 -17,0 -38,-2 -53,-7 -5,-2 -7,-5 -7,-13l0 -214zm875 363c0,-36 0,-64 1,-85 1,-25 8,-37 27,-40 8,-2 13,-2 19,-2 5,0 9,-2 9,-6 0,-6 -5,-7 -14,-7 -23,0 -61,2 -82,2 -22,0 -66,-2 -103,-2 -10,0 -15,1 -15,7 0,4 4,6 11,6 10,0 22,0 27,2 24,5 30,16 31,40 0,21 0,48 0,83l0 67c0,12 -2,21 -13,26 -17,8 -42,8 -60,8 -149,0 -246,-114 -246,-266 0,-87 26,-140 65,-173 50,-41 101,-44 140,-44 80,0 136,33 158,55 18,20 21,43 24,59 0,6 2,9 7,9 5,0 7,-3 7,-15 0,-88 5,-108 5,-116 0,-5 -1,-7 -10,-8 -16,-1 -41,-5 -55,-8 -14,-3 -77,-11 -125,-11 -60,0 -123,5 -190,46 -65,39 -123,118 -123,231 0,195 153,277 326,277 55,0 124,-8 170,-32 9,-5 9,-7 9,-26l0 -77zm383 -55c4,0 6,1 7,5l57 145c3,8 -2,15 -6,16 -8,1 -10,2 -10,7 0,5 8,5 21,5 56,2 108,2 133,2 26,0 33,-2 33,-7 0,-5 -4,-6 -9,-6 -9,0 -19,-1 -30,-3 -15,-3 -35,-13 -62,-77 -45,-107 -158,-390 -175,-429 -7,-16 -12,-22 -18,-22 -7,0 -11,8 -20,28l-177 438c-14,35 -28,59 -60,64 -6,0 -16,1 -22,1 -6,0 -9,1 -9,6 0,5 5,7 14,7 37,0 75,-2 83,-2 22,0 53,2 75,2 8,0 12,-2 12,-7 0,-5 -2,-6 -10,-6l-11 0c-22,0 -28,-9 -28,-22 0,-8 3,-25 10,-43l38 -97c2,-4 3,-5 7,-5l157 0zm-143 -36c-3,0 -4,-2 -3,-5l65 -173c1,-3 2,-6 4,-6 2,0 3,3 4,6l63 174c1,2 0,4 -3,4l-130 0zm484 -175l2 0c13,14 91,100 168,176 74,73 164,165 208,208 8,7 17,15 24,15 7,0 10,-6 10,-22l7 -445c1,-40 7,-55 26,-60 9,-3 15,-3 22,-3 8,0 12,-2 12,-6 0,-6 -7,-6 -16,-6 -35,0 -61,2 -69,2 -15,0 -49,-2 -85,-2 -11,0 -19,0 -19,6 0,4 3,6 11,6 10,0 27,0 38,5 17,7 23,20 24,63l7 317 -4 0c-12,-11 -107,-113 -155,-161 -103,-102 -210,-215 -219,-224 -12,-13 -18,-22 -26,-22 -7,0 -9,10 -9,24l-7 416c0,61 -3,82 -21,87 -10,3 -23,4 -32,4 -7,0 -12,1 -12,6 0,6 7,7 16,7 37,0 70,-2 76,-2 14,0 42,2 88,2 10,0 16,-2 16,-7 0,-5 -4,-6 -12,-6 -11,0 -25,-1 -37,-5 -14,-5 -23,-23 -24,-78l-8 -295zm637 186c0,68 0,124 -4,154 -2,20 -6,32 -20,35 -7,2 -15,3 -26,3 -8,0 -11,2 -11,6 0,5 5,7 14,7 28,0 73,-2 89,-2 19,0 64,2 110,2 8,0 14,-2 14,-7 0,-4 -4,-6 -11,-6 -11,0 -27,-1 -37,-3 -21,-3 -26,-15 -28,-34 -3,-31 -3,-87 -3,-155l0 -124c0,-108 0,-128 2,-150 1,-25 7,-37 26,-40 8,-2 14,-3 21,-3 7,0 11,-1 11,-7 0,-4 -5,-5 -14,-5 -27,0 -69,2 -87,2 -20,0 -65,-2 -91,-2 -12,0 -17,1 -17,5 0,6 4,7 11,7 8,0 18,1 25,3 16,4 23,16 24,40 2,22 2,42 2,150l0 124zm383 215c38,0 77,-7 113,-29 51,-34 66,-82 66,-123 0,-67 -30,-116 -116,-180l-20 -15c-58,-45 -74,-69 -74,-102 0,-42 31,-73 84,-73 46,0 66,22 77,35 14,18 18,40 18,47 0,8 2,12 7,12 6,0 8,-5 8,-21 0,-55 3,-76 3,-85 0,-5 -4,-7 -10,-8 -19,-5 -48,-12 -94,-12 -98,0 -163,56 -163,133 0,58 26,107 104,168l33 25c58,46 69,79 69,113 0,38 -31,81 -95,81 -44,0 -85,-19 -101,-72 -3,-12 -6,-27 -6,-36 0,-5 -1,-12 -7,-12 -6,0 -8,8 -9,19 0,11 -3,53 -3,92 0,16 2,19 13,24 31,14 62,19 103,19zm533 -190c3,0 6,1 7,5l56 145c4,8 -1,15 -6,16 -7,1 -10,2 -10,7 0,5 9,5 21,5 57,2 108,2 134,2 26,0 32,-2 32,-7 0,-5 -3,-6 -9,-6 -8,0 -19,-1 -29,-3 -15,-3 -36,-13 -63,-77 -45,-107 -158,-390 -175,-429 -7,-16 -11,-22 -17,-22 -7,0 -12,8 -20,28l-177 438c-15,35 -28,59 -61,64 -5,0 -15,1 -21,1 -6,0 -9,1 -9,6 0,5 4,7 14,7 36,0 75,-2 83,-2 22,0 52,2 75,2 8,0 12,-2 12,-7 0,-5 -2,-6 -11,-6l-10 0c-22,0 -29,-9 -29,-22 0,-8 4,-25 11,-43l38 -97c1,-4 3,-5 6,-5l158 0zm-143 -36c-3,0 -4,-2 -3,-5l65 -173c0,-3 2,-6 4,-6 2,0 3,3 3,6l64 174c1,2 0,4 -4,4l-129 0zm500 11c0,65 0,121 -4,150 -2,21 -6,36 -20,39 -7,2 -15,3 -26,3 -8,0 -11,2 -11,6 0,5 5,7 14,7 28,0 73,-2 89,-2 20,0 64,2 111,2 8,0 13,-2 13,-7 0,-4 -3,-6 -11,-6 -11,0 -26,-1 -36,-3 -21,-3 -25,-18 -28,-38 -3,-30 -3,-86 -3,-151l0 -290 89 2c63,2 82,22 83,40l1 8c1,10 2,14 8,14 4,0 5,-4 6,-11 0,-19 2,-68 2,-82 0,-11 -1,-15 -5,-15 -3,0 -9,1 -20,3 -10,2 -26,4 -48,4l-280 0c-23,0 -50,-2 -71,-4 -17,-1 -24,-8 -30,-8 -4,0 -6,4 -8,13 -2,6 -15,70 -15,81 0,8 1,12 6,12 4,0 6,-3 8,-9 1,-5 5,-14 12,-24 10,-16 27,-19 68,-21l106 -3 0 290zm407 0c0,68 0,124 -3,154 -3,20 -7,32 -21,35 -6,2 -15,3 -25,3 -9,0 -12,2 -12,6 0,5 5,7 15,7 28,0 72,-2 89,-2 19,0 63,2 110,2 7,0 13,-2 13,-7 0,-4 -3,-6 -11,-6 -11,0 -26,-1 -36,-3 -21,-3 -26,-15 -28,-34 -3,-31 -3,-87 -3,-155l0 -124c0,-108 0,-128 1,-150 2,-25 7,-37 26,-40 9,-2 14,-3 21,-3 8,0 12,-1 12,-7 0,-4 -6,-5 -15,-5 -27,0 -69,2 -86,2 -21,0 -65,-2 -92,-2 -11,0 -17,1 -17,5 0,6 4,7 11,7 9,0 18,1 26,3 15,4 22,16 24,40 1,22 1,42 1,150l0 124zm520 215c179,0 292,-128 292,-290 0,-162 -109,-264 -285,-264 -212,0 -292,156 -292,277 0,125 82,277 285,277zm30 -36c-136,0 -217,-116 -217,-263 0,-176 92,-221 174,-221 115,0 207,98 207,256 0,204 -115,228 -164,228zm442 -365l2 0c13,14 91,100 168,176 74,73 164,165 208,208 8,7 17,15 24,15 7,0 10,-6 10,-22l7 -445c1,-40 7,-55 26,-60 9,-3 15,-3 22,-3 8,0 12,-2 12,-6 0,-6 -7,-6 -16,-6 -34,0 -61,2 -69,2 -15,0 -49,-2 -85,-2 -11,0 -19,0 -19,6 0,4 3,6 12,6 9,0 26,0 37,5 17,7 23,20 24,63l7 317 -4 0c-12,-11 -107,-113 -155,-161 -103,-102 -210,-215 -219,-224 -12,-13 -18,-22 -26,-22 -7,0 -9,10 -9,24l-7 416c0,61 -3,82 -21,87 -10,3 -23,4 -32,4 -7,0 -12,1 -12,6 0,6 7,7 16,7 37,0 70,-2 76,-2 14,0 42,2 88,2 10,0 16,-2 16,-7 0,-5 -4,-6 -12,-6 -11,0 -24,-1 -36,-5 -15,-5 -24,-23 -25,-78l-8 -295z"/>
  </g>
 </g>
</svg>
